  0
SECTION
  2
HEADER
  9
$ANGBASE
  50
0.0
  9
$ANGDIR
  70
1
  9
$MEASUREMENT
  70
1
  0
ENDSEC
  0
SECTION
  2
TABLES
  0
TABLE
  2
LTYPE
  70
4
  0
LTYPE
  5
40F
  2
CONTINUOUS
  70
0
  3
Solid line
  72
65
  73
0
  40
0.0
  0
LTYPE
  5
410
  2
DASHDOT
 70
0
  3
Dash Dot ____ _ ____ _
 72
65
 73
4
 40
2.0
 49
1.25
 49
-0.25
 49
0.25
 49
-0.25
  0
LTYPE
  5
411
  2
DASHED
 70
0
  3
Dashed __ __ __ __ __
 72
65
 73
2
 40
0.75
 49
0.5
 49
-0.25
  0
LTYPE
  5
43B
  2
DOTTED
 70
0
  3
Dotted .  .  .  .
 72
65
 73
2
 40
0.2
 49
0.0
 49
-0.2
  0
ENDTAB
  0
TABLE
  2
STYLE
  70
4
  0
STYLE
  2
KICAD
  70
0
  40
0
  41
1
  42
1
  50
0
  71
0
  3
isocp.shx
  0
STYLE
  2
KICADB
  70
0
  40
0
  41
1
  42
1
  50
0
  71
0
  3
isocp.shx
  0
STYLE
  2
KICADI
  70
0
  40
0
  41
1
  42
1
  50
15
  71
0
  3
isocp.shx
  0
STYLE
  2
KICADBI
  70
0
  40
0
  41
1
  42
1
  50
15
  71
0
  3
isocp.shx
  0
ENDTAB
  0
TABLE
  2
LAYER
  70
1
  0
LAYER
  2
BLACK
  70
0
  62
7
  6
CONTINUOUS
  0
ENDTAB
  0
ENDSEC
  0
SECTION
  2
ENTITIES
0
LINE
8
BLACK
6
CONTINUOUS
10
145
20
-49.925
11
145.419
21
-49.9423
0
LINE
8
BLACK
6
CONTINUOUS
10
145.419
20
-49.9423
11
145.835
21
-49.9942
0
LINE
8
BLACK
6
CONTINUOUS
10
145.835
20
-49.9942
11
146.246
21
-50.0803
0
LINE
8
BLACK
6
CONTINUOUS
10
146.246
20
-50.0803
11
146.648
21
-50.2
0
LINE
8
BLACK
6
CONTINUOUS
10
146.648
20
-50.2
11
147.039
21
-50.3524
0
LINE
8
BLACK
6
CONTINUOUS
10
147.039
20
-50.3524
11
147.415
21
-50.5367
0
LINE
8
BLACK
6
CONTINUOUS
10
147.415
20
-50.5367
11
147.776
21
-50.7514
0
LINE
8
BLACK
6
CONTINUOUS
10
147.776
20
-50.7514
11
148.117
21
-50.9951
0
LINE
8
BLACK
6
CONTINUOUS
10
148.117
20
-50.9951
11
148.437
21
-51.2662
0
LINE
8
BLACK
6
CONTINUOUS
10
148.437
20
-51.2662
11
148.734
21
-51.5628
0
LINE
8
BLACK
6
CONTINUOUS
10
148.734
20
-51.5628
11
149.005
21
-51.8829
0
LINE
8
BLACK
6
CONTINUOUS
10
149.005
20
-51.8829
11
149.249
21
-52.2242
0
LINE
8
BLACK
6
CONTINUOUS
10
149.249
20
-52.2242
11
149.463
21
-52.5846
0
LINE
8
BLACK
6
CONTINUOUS
10
149.463
20
-52.5846
11
149.648
21
-52.9614
0
LINE
8
BLACK
6
CONTINUOUS
10
149.648
20
-52.9614
11
149.8
21
-53.3521
0
LINE
8
BLACK
6
CONTINUOUS
10
149.8
20
-53.3521
11
149.92
21
-53.7542
0
LINE
8
BLACK
6
CONTINUOUS
10
149.92
20
-53.7542
11
150.006
21
-54.1647
0
LINE
8
BLACK
6
CONTINUOUS
10
150.006
20
-54.1647
11
150.058
21
-54.5809
0
LINE
8
BLACK
6
CONTINUOUS
10
150.058
20
-54.5809
11
150.075
21
-55
0
LINE
8
BLACK
6
CONTINUOUS
10
150.075
20
-55
11
150.075
21
-55
0
LINE
8
BLACK
6
CONTINUOUS
10
150.075
20
-55
11
150.075
21
-145
0
LINE
8
BLACK
6
CONTINUOUS
10
150.075
20
-145
11
150.058
21
-145.419
0
LINE
8
BLACK
6
CONTINUOUS
10
150.058
20
-145.419
11
150.006
21
-145.835
0
LINE
8
BLACK
6
CONTINUOUS
10
150.006
20
-145.835
11
149.92
21
-146.246
0
LINE
8
BLACK
6
CONTINUOUS
10
149.92
20
-146.246
11
149.8
21
-146.648
0
LINE
8
BLACK
6
CONTINUOUS
10
149.8
20
-146.648
11
149.648
21
-147.039
0
LINE
8
BLACK
6
CONTINUOUS
10
149.648
20
-147.039
11
149.463
21
-147.415
0
LINE
8
BLACK
6
CONTINUOUS
10
149.463
20
-147.415
11
149.249
21
-147.776
0
LINE
8
BLACK
6
CONTINUOUS
10
149.249
20
-147.776
11
149.005
21
-148.117
0
LINE
8
BLACK
6
CONTINUOUS
10
149.005
20
-148.117
11
148.734
21
-148.437
0
LINE
8
BLACK
6
CONTINUOUS
10
148.734
20
-148.437
11
148.437
21
-148.734
0
LINE
8
BLACK
6
CONTINUOUS
10
148.437
20
-148.734
11
148.117
21
-149.005
0
LINE
8
BLACK
6
CONTINUOUS
10
148.117
20
-149.005
11
147.776
21
-149.249
0
LINE
8
BLACK
6
CONTINUOUS
10
147.776
20
-149.249
11
147.415
21
-149.463
0
LINE
8
BLACK
6
CONTINUOUS
10
147.415
20
-149.463
11
147.039
21
-149.648
0
LINE
8
BLACK
6
CONTINUOUS
10
147.039
20
-149.648
11
146.648
21
-149.8
0
LINE
8
BLACK
6
CONTINUOUS
10
146.648
20
-149.8
11
146.246
21
-149.92
0
LINE
8
BLACK
6
CONTINUOUS
10
146.246
20
-149.92
11
145.835
21
-150.006
0
LINE
8
BLACK
6
CONTINUOUS
10
145.835
20
-150.006
11
145.419
21
-150.058
0
LINE
8
BLACK
6
CONTINUOUS
10
145.419
20
-150.058
11
145
21
-150.075
0
LINE
8
BLACK
6
CONTINUOUS
10
145
20
-150.075
11
55
21
-150.075
0
LINE
8
BLACK
6
CONTINUOUS
10
55
20
-150.075
11
54.5809
21
-150.058
0
LINE
8
BLACK
6
CONTINUOUS
10
54.5809
20
-150.058
11
54.1647
21
-150.006
0
LINE
8
BLACK
6
CONTINUOUS
10
54.1647
20
-150.006
11
53.7542
21
-149.92
0
LINE
8
BLACK
6
CONTINUOUS
10
53.7542
20
-149.92
11
53.3521
21
-149.8
0
LINE
8
BLACK
6
CONTINUOUS
10
53.3521
20
-149.8
11
52.9614
21
-149.648
0
LINE
8
BLACK
6
CONTINUOUS
10
52.9614
20
-149.648
11
52.5846
21
-149.463
0
LINE
8
BLACK
6
CONTINUOUS
10
52.5846
20
-149.463
11
52.2242
21
-149.249
0
LINE
8
BLACK
6
CONTINUOUS
10
52.2242
20
-149.249
11
51.8829
21
-149.005
0
LINE
8
BLACK
6
CONTINUOUS
10
51.8829
20
-149.005
11
51.5628
21
-148.734
0
LINE
8
BLACK
6
CONTINUOUS
10
51.5628
20
-148.734
11
51.2662
21
-148.437
0
LINE
8
BLACK
6
CONTINUOUS
10
51.2662
20
-148.437
11
50.9951
21
-148.117
0
LINE
8
BLACK
6
CONTINUOUS
10
50.9951
20
-148.117
11
50.7514
21
-147.776
0
LINE
8
BLACK
6
CONTINUOUS
10
50.7514
20
-147.776
11
50.5367
21
-147.415
0
LINE
8
BLACK
6
CONTINUOUS
10
50.5367
20
-147.415
11
50.3524
21
-147.039
0
LINE
8
BLACK
6
CONTINUOUS
10
50.3524
20
-147.039
11
50.2
21
-146.648
0
LINE
8
BLACK
6
CONTINUOUS
10
50.2
20
-146.648
11
50.0803
21
-146.246
0
LINE
8
BLACK
6
CONTINUOUS
10
50.0803
20
-146.246
11
49.9942
21
-145.835
0
LINE
8
BLACK
6
CONTINUOUS
10
49.9942
20
-145.835
11
49.9423
21
-145.419
0
LINE
8
BLACK
6
CONTINUOUS
10
49.9423
20
-145.419
11
49.925
21
-145
0
LINE
8
BLACK
6
CONTINUOUS
10
49.925
20
-145
11
49.925
21
-55
0
LINE
8
BLACK
6
CONTINUOUS
10
49.925
20
-55
11
49.925
21
-55
0
LINE
8
BLACK
6
CONTINUOUS
10
49.925
20
-55
11
49.9423
21
-54.5809
0
LINE
8
BLACK
6
CONTINUOUS
10
49.9423
20
-54.5809
11
49.9942
21
-54.1647
0
LINE
8
BLACK
6
CONTINUOUS
10
49.9942
20
-54.1647
11
50.0803
21
-53.7542
0
LINE
8
BLACK
6
CONTINUOUS
10
50.0803
20
-53.7542
11
50.2
21
-53.3521
0
LINE
8
BLACK
6
CONTINUOUS
10
50.2
20
-53.3521
11
50.3524
21
-52.9614
0
LINE
8
BLACK
6
CONTINUOUS
10
50.3524
20
-52.9614
11
50.5367
21
-52.5846
0
LINE
8
BLACK
6
CONTINUOUS
10
50.5367
20
-52.5846
11
50.7514
21
-52.2242
0
LINE
8
BLACK
6
CONTINUOUS
10
50.7514
20
-52.2242
11
50.9951
21
-51.8829
0
LINE
8
BLACK
6
CONTINUOUS
10
50.9951
20
-51.8829
11
51.2662
21
-51.5628
0
LINE
8
BLACK
6
CONTINUOUS
10
51.2662
20
-51.5628
11
51.5628
21
-51.2662
0
LINE
8
BLACK
6
CONTINUOUS
10
51.5628
20
-51.2662
11
51.8829
21
-50.9951
0
LINE
8
BLACK
6
CONTINUOUS
10
51.8829
20
-50.9951
11
52.2242
21
-50.7514
0
LINE
8
BLACK
6
CONTINUOUS
10
52.2242
20
-50.7514
11
52.5846
21
-50.5367
0
LINE
8
BLACK
6
CONTINUOUS
10
52.5846
20
-50.5367
11
52.9614
21
-50.3524
0
LINE
8
BLACK
6
CONTINUOUS
10
52.9614
20
-50.3524
11
53.3521
21
-50.2
0
LINE
8
BLACK
6
CONTINUOUS
10
53.3521
20
-50.2
11
53.7542
21
-50.0803
0
LINE
8
BLACK
6
CONTINUOUS
10
53.7542
20
-50.0803
11
54.1647
21
-49.9942
0
LINE
8
BLACK
6
CONTINUOUS
10
54.1647
20
-49.9942
11
54.5809
21
-49.9423
0
LINE
8
BLACK
6
CONTINUOUS
10
54.5809
20
-49.9423
11
55
21
-49.925
0
LINE
8
BLACK
6
CONTINUOUS
10
55
20
-49.925
11
145
21
-49.925
0
LINE
8
BLACK
6
CONTINUOUS
10
55
20
-50.075
11
54.785
21
-50.075
0
LINE
8
BLACK
6
CONTINUOUS
10
54.785
20
-50.075
11
54.3565
21
-50.1125
0
LINE
8
BLACK
6
CONTINUOUS
10
54.3565
20
-50.1125
11
53.933
21
-50.1872
0
LINE
8
BLACK
6
CONTINUOUS
10
53.933
20
-50.1872
11
53.5176
21
-50.2985
0
LINE
8
BLACK
6
CONTINUOUS
10
53.5176
20
-50.2985
11
53.1135
21
-50.4456
0
LINE
8
BLACK
6
CONTINUOUS
10
53.1135
20
-50.4456
11
52.7237
21
-50.6273
0
LINE
8
BLACK
6
CONTINUOUS
10
52.7237
20
-50.6273
11
52.3513
21
-50.8423
0
LINE
8
BLACK
6
CONTINUOUS
10
52.3513
20
-50.8423
11
51.999
21
-51.089
0
LINE
8
BLACK
6
CONTINUOUS
10
51.999
20
-51.089
11
51.6695
21
-51.3654
0
LINE
8
BLACK
6
CONTINUOUS
10
51.6695
20
-51.3654
11
51.3654
21
-51.6695
0
LINE
8
BLACK
6
CONTINUOUS
10
51.3654
20
-51.6695
11
51.089
21
-51.999
0
LINE
8
BLACK
6
CONTINUOUS
10
51.089
20
-51.999
11
50.8423
21
-52.3513
0
LINE
8
BLACK
6
CONTINUOUS
10
50.8423
20
-52.3513
11
50.6273
21
-52.7237
0
LINE
8
BLACK
6
CONTINUOUS
10
50.6273
20
-52.7237
11
50.4456
21
-53.1135
0
LINE
8
BLACK
6
CONTINUOUS
10
50.4456
20
-53.1135
11
50.2985
21
-53.5176
0
LINE
8
BLACK
6
CONTINUOUS
10
50.2985
20
-53.5176
11
50.1872
21
-53.933
0
LINE
8
BLACK
6
CONTINUOUS
10
50.1872
20
-53.933
11
50.1125
21
-54.3565
0
LINE
8
BLACK
6
CONTINUOUS
10
50.1125
20
-54.3565
11
50.075
21
-54.785
0
LINE
8
BLACK
6
CONTINUOUS
10
50.075
20
-54.785
11
50.075
21
-55
0
LINE
8
BLACK
6
CONTINUOUS
10
50.075
20
-55
11
50.075
21
-145
0
LINE
8
BLACK
6
CONTINUOUS
10
50.075
20
-145
11
50.075
21
-145.215
0
LINE
8
BLACK
6
CONTINUOUS
10
50.075
20
-145.215
11
50.1125
21
-145.643
0
LINE
8
BLACK
6
CONTINUOUS
10
50.1125
20
-145.643
11
50.1872
21
-146.067
0
LINE
8
BLACK
6
CONTINUOUS
10
50.1872
20
-146.067
11
50.2985
21
-146.482
0
LINE
8
BLACK
6
CONTINUOUS
10
50.2985
20
-146.482
11
50.4456
21
-146.887
0
LINE
8
BLACK
6
CONTINUOUS
10
50.4456
20
-146.887
11
50.6273
21
-147.276
0
LINE
8
BLACK
6
CONTINUOUS
10
50.6273
20
-147.276
11
50.8423
21
-147.649
0
LINE
8
BLACK
6
CONTINUOUS
10
50.8423
20
-147.649
11
51.089
21
-148.001
0
LINE
8
BLACK
6
CONTINUOUS
10
51.089
20
-148.001
11
51.3654
21
-148.33
0
LINE
8
BLACK
6
CONTINUOUS
10
51.3654
20
-148.33
11
51.6695
21
-148.635
0
LINE
8
BLACK
6
CONTINUOUS
10
51.6695
20
-148.635
11
51.999
21
-148.911
0
LINE
8
BLACK
6
CONTINUOUS
10
51.999
20
-148.911
11
52.3513
21
-149.158
0
LINE
8
BLACK
6
CONTINUOUS
10
52.3513
20
-149.158
11
52.7237
21
-149.373
0
LINE
8
BLACK
6
CONTINUOUS
10
52.7237
20
-149.373
11
53.1135
21
-149.554
0
LINE
8
BLACK
6
CONTINUOUS
10
53.1135
20
-149.554
11
53.5176
21
-149.702
0
LINE
8
BLACK
6
CONTINUOUS
10
53.5176
20
-149.702
11
53.933
21
-149.813
0
LINE
8
BLACK
6
CONTINUOUS
10
53.933
20
-149.813
11
54.3565
21
-149.888
0
LINE
8
BLACK
6
CONTINUOUS
10
54.3565
20
-149.888
11
54.785
21
-149.925
0
LINE
8
BLACK
6
CONTINUOUS
10
54.785
20
-149.925
11
55
21
-149.925
0
LINE
8
BLACK
6
CONTINUOUS
10
55
20
-149.925
11
145
21
-149.925
0
LINE
8
BLACK
6
CONTINUOUS
10
145
20
-149.925
11
145.215
21
-149.925
0
LINE
8
BLACK
6
CONTINUOUS
10
145.215
20
-149.925
11
145.643
21
-149.888
0
LINE
8
BLACK
6
CONTINUOUS
10
145.643
20
-149.888
11
146.067
21
-149.813
0
LINE
8
BLACK
6
CONTINUOUS
10
146.067
20
-149.813
11
146.482
21
-149.702
0
LINE
8
BLACK
6
CONTINUOUS
10
146.482
20
-149.702
11
146.887
21
-149.554
0
LINE
8
BLACK
6
CONTINUOUS
10
146.887
20
-149.554
11
147.276
21
-149.373
0
LINE
8
BLACK
6
CONTINUOUS
10
147.276
20
-149.373
11
147.649
21
-149.158
0
LINE
8
BLACK
6
CONTINUOUS
10
147.649
20
-149.158
11
148.001
21
-148.911
0
LINE
8
BLACK
6
CONTINUOUS
10
148.001
20
-148.911
11
148.33
21
-148.635
0
LINE
8
BLACK
6
CONTINUOUS
10
148.33
20
-148.635
11
148.635
21
-148.33
0
LINE
8
BLACK
6
CONTINUOUS
10
148.635
20
-148.33
11
148.911
21
-148.001
0
LINE
8
BLACK
6
CONTINUOUS
10
148.911
20
-148.001
11
149.158
21
-147.649
0
LINE
8
BLACK
6
CONTINUOUS
10
149.158
20
-147.649
11
149.373
21
-147.276
0
LINE
8
BLACK
6
CONTINUOUS
10
149.373
20
-147.276
11
149.554
21
-146.887
0
LINE
8
BLACK
6
CONTINUOUS
10
149.554
20
-146.887
11
149.702
21
-146.482
0
LINE
8
BLACK
6
CONTINUOUS
10
149.702
20
-146.482
11
149.813
21
-146.067
0
LINE
8
BLACK
6
CONTINUOUS
10
149.813
20
-146.067
11
149.888
21
-145.643
0
LINE
8
BLACK
6
CONTINUOUS
10
149.888
20
-145.643
11
149.925
21
-145.215
0
LINE
8
BLACK
6
CONTINUOUS
10
149.925
20
-145.215
11
149.925
21
-145
0
LINE
8
BLACK
6
CONTINUOUS
10
149.925
20
-145
11
149.925
21
-55
0
LINE
8
BLACK
6
CONTINUOUS
10
149.925
20
-55
11
149.925
21
-54.785
0
LINE
8
BLACK
6
CONTINUOUS
10
149.925
20
-54.785
11
149.888
21
-54.3565
0
LINE
8
BLACK
6
CONTINUOUS
10
149.888
20
-54.3565
11
149.813
21
-53.933
0
LINE
8
BLACK
6
CONTINUOUS
10
149.813
20
-53.933
11
149.702
21
-53.5176
0
LINE
8
BLACK
6
CONTINUOUS
10
149.702
20
-53.5176
11
149.554
21
-53.1135
0
LINE
8
BLACK
6
CONTINUOUS
10
149.554
20
-53.1135
11
149.373
21
-52.7237
0
LINE
8
BLACK
6
CONTINUOUS
10
149.373
20
-52.7237
11
149.158
21
-52.3513
0
LINE
8
BLACK
6
CONTINUOUS
10
149.158
20
-52.3513
11
148.911
21
-51.999
0
LINE
8
BLACK
6
CONTINUOUS
10
148.911
20
-51.999
11
148.635
21
-51.6695
0
LINE
8
BLACK
6
CONTINUOUS
10
148.635
20
-51.6695
11
148.33
21
-51.3654
0
LINE
8
BLACK
6
CONTINUOUS
10
148.33
20
-51.3654
11
148.001
21
-51.089
0
LINE
8
BLACK
6
CONTINUOUS
10
148.001
20
-51.089
11
147.649
21
-50.8423
0
LINE
8
BLACK
6
CONTINUOUS
10
147.649
20
-50.8423
11
147.276
21
-50.6273
0
LINE
8
BLACK
6
CONTINUOUS
10
147.276
20
-50.6273
11
146.887
21
-50.4456
0
LINE
8
BLACK
6
CONTINUOUS
10
146.887
20
-50.4456
11
146.482
21
-50.2985
0
LINE
8
BLACK
6
CONTINUOUS
10
146.482
20
-50.2985
11
146.067
21
-50.1872
0
LINE
8
BLACK
6
CONTINUOUS
10
146.067
20
-50.1872
11
145.643
21
-50.1125
0
LINE
8
BLACK
6
CONTINUOUS
10
145.643
20
-50.1125
11
145.215
21
-50.075
0
LINE
8
BLACK
6
CONTINUOUS
10
145.215
20
-50.075
11
145
21
-50.075
0
LINE
8
BLACK
6
CONTINUOUS
10
145
20
-50.075
11
55
21
-50.075
0
LINE
8
BLACK
6
CONTINUOUS
10
145
20
-49.925
11
145.419
21
-49.9423
0
LINE
8
BLACK
6
CONTINUOUS
10
145.419
20
-49.9423
11
145.835
21
-49.9942
0
LINE
8
BLACK
6
CONTINUOUS
10
145.835
20
-49.9942
11
146.246
21
-50.0803
0
LINE
8
BLACK
6
CONTINUOUS
10
146.246
20
-50.0803
11
146.648
21
-50.2
0
LINE
8
BLACK
6
CONTINUOUS
10
146.648
20
-50.2
11
147.039
21
-50.3524
0
LINE
8
BLACK
6
CONTINUOUS
10
147.039
20
-50.3524
11
147.415
21
-50.5367
0
LINE
8
BLACK
6
CONTINUOUS
10
147.415
20
-50.5367
11
147.776
21
-50.7514
0
LINE
8
BLACK
6
CONTINUOUS
10
147.776
20
-50.7514
11
148.117
21
-50.9951
0
LINE
8
BLACK
6
CONTINUOUS
10
148.117
20
-50.9951
11
148.437
21
-51.2662
0
LINE
8
BLACK
6
CONTINUOUS
10
148.437
20
-51.2662
11
148.734
21
-51.5628
0
LINE
8
BLACK
6
CONTINUOUS
10
148.734
20
-51.5628
11
149.005
21
-51.8829
0
LINE
8
BLACK
6
CONTINUOUS
10
149.005
20
-51.8829
11
149.249
21
-52.2242
0
LINE
8
BLACK
6
CONTINUOUS
10
149.249
20
-52.2242
11
149.463
21
-52.5846
0
LINE
8
BLACK
6
CONTINUOUS
10
149.463
20
-52.5846
11
149.648
21
-52.9614
0
LINE
8
BLACK
6
CONTINUOUS
10
149.648
20
-52.9614
11
149.8
21
-53.3521
0
LINE
8
BLACK
6
CONTINUOUS
10
149.8
20
-53.3521
11
149.92
21
-53.7542
0
LINE
8
BLACK
6
CONTINUOUS
10
149.92
20
-53.7542
11
150.006
21
-54.1647
0
LINE
8
BLACK
6
CONTINUOUS
10
150.006
20
-54.1647
11
150.058
21
-54.5809
0
LINE
8
BLACK
6
CONTINUOUS
10
150.058
20
-54.5809
11
150.075
21
-55
0
LINE
8
BLACK
6
CONTINUOUS
10
150.075
20
-55
11
150.075
21
-55
0
LINE
8
BLACK
6
CONTINUOUS
10
150.075
20
-55
11
150.075
21
-145
0
LINE
8
BLACK
6
CONTINUOUS
10
150.075
20
-145
11
150.058
21
-145.419
0
LINE
8
BLACK
6
CONTINUOUS
10
150.058
20
-145.419
11
150.006
21
-145.835
0
LINE
8
BLACK
6
CONTINUOUS
10
150.006
20
-145.835
11
149.92
21
-146.246
0
LINE
8
BLACK
6
CONTINUOUS
10
149.92
20
-146.246
11
149.8
21
-146.648
0
LINE
8
BLACK
6
CONTINUOUS
10
149.8
20
-146.648
11
149.648
21
-147.039
0
LINE
8
BLACK
6
CONTINUOUS
10
149.648
20
-147.039
11
149.463
21
-147.415
0
LINE
8
BLACK
6
CONTINUOUS
10
149.463
20
-147.415
11
149.249
21
-147.776
0
LINE
8
BLACK
6
CONTINUOUS
10
149.249
20
-147.776
11
149.005
21
-148.117
0
LINE
8
BLACK
6
CONTINUOUS
10
149.005
20
-148.117
11
148.734
21
-148.437
0
LINE
8
BLACK
6
CONTINUOUS
10
148.734
20
-148.437
11
148.437
21
-148.734
0
LINE
8
BLACK
6
CONTINUOUS
10
148.437
20
-148.734
11
148.117
21
-149.005
0
LINE
8
BLACK
6
CONTINUOUS
10
148.117
20
-149.005
11
147.776
21
-149.249
0
LINE
8
BLACK
6
CONTINUOUS
10
147.776
20
-149.249
11
147.415
21
-149.463
0
LINE
8
BLACK
6
CONTINUOUS
10
147.415
20
-149.463
11
147.039
21
-149.648
0
LINE
8
BLACK
6
CONTINUOUS
10
147.039
20
-149.648
11
146.648
21
-149.8
0
LINE
8
BLACK
6
CONTINUOUS
10
146.648
20
-149.8
11
146.246
21
-149.92
0
LINE
8
BLACK
6
CONTINUOUS
10
146.246
20
-149.92
11
145.835
21
-150.006
0
LINE
8
BLACK
6
CONTINUOUS
10
145.835
20
-150.006
11
145.419
21
-150.058
0
LINE
8
BLACK
6
CONTINUOUS
10
145.419
20
-150.058
11
145
21
-150.075
0
LINE
8
BLACK
6
CONTINUOUS
10
145
20
-150.075
11
55
21
-150.075
0
LINE
8
BLACK
6
CONTINUOUS
10
55
20
-150.075
11
54.5809
21
-150.058
0
LINE
8
BLACK
6
CONTINUOUS
10
54.5809
20
-150.058
11
54.1647
21
-150.006
0
LINE
8
BLACK
6
CONTINUOUS
10
54.1647
20
-150.006
11
53.7542
21
-149.92
0
LINE
8
BLACK
6
CONTINUOUS
10
53.7542
20
-149.92
11
53.3521
21
-149.8
0
LINE
8
BLACK
6
CONTINUOUS
10
53.3521
20
-149.8
11
52.9614
21
-149.648
0
LINE
8
BLACK
6
CONTINUOUS
10
52.9614
20
-149.648
11
52.5846
21
-149.463
0
LINE
8
BLACK
6
CONTINUOUS
10
52.5846
20
-149.463
11
52.2242
21
-149.249
0
LINE
8
BLACK
6
CONTINUOUS
10
52.2242
20
-149.249
11
51.8829
21
-149.005
0
LINE
8
BLACK
6
CONTINUOUS
10
51.8829
20
-149.005
11
51.5628
21
-148.734
0
LINE
8
BLACK
6
CONTINUOUS
10
51.5628
20
-148.734
11
51.2662
21
-148.437
0
LINE
8
BLACK
6
CONTINUOUS
10
51.2662
20
-148.437
11
50.9951
21
-148.117
0
LINE
8
BLACK
6
CONTINUOUS
10
50.9951
20
-148.117
11
50.7514
21
-147.776
0
LINE
8
BLACK
6
CONTINUOUS
10
50.7514
20
-147.776
11
50.5367
21
-147.415
0
LINE
8
BLACK
6
CONTINUOUS
10
50.5367
20
-147.415
11
50.3524
21
-147.039
0
LINE
8
BLACK
6
CONTINUOUS
10
50.3524
20
-147.039
11
50.2
21
-146.648
0
LINE
8
BLACK
6
CONTINUOUS
10
50.2
20
-146.648
11
50.0803
21
-146.246
0
LINE
8
BLACK
6
CONTINUOUS
10
50.0803
20
-146.246
11
49.9942
21
-145.835
0
LINE
8
BLACK
6
CONTINUOUS
10
49.9942
20
-145.835
11
49.9423
21
-145.419
0
LINE
8
BLACK
6
CONTINUOUS
10
49.9423
20
-145.419
11
49.925
21
-145
0
LINE
8
BLACK
6
CONTINUOUS
10
49.925
20
-145
11
49.925
21
-55
0
LINE
8
BLACK
6
CONTINUOUS
10
49.925
20
-55
11
49.925
21
-55
0
LINE
8
BLACK
6
CONTINUOUS
10
49.925
20
-55
11
49.9423
21
-54.5809
0
LINE
8
BLACK
6
CONTINUOUS
10
49.9423
20
-54.5809
11
49.9942
21
-54.1647
0
LINE
8
BLACK
6
CONTINUOUS
10
49.9942
20
-54.1647
11
50.0803
21
-53.7542
0
LINE
8
BLACK
6
CONTINUOUS
10
50.0803
20
-53.7542
11
50.2
21
-53.3521
0
LINE
8
BLACK
6
CONTINUOUS
10
50.2
20
-53.3521
11
50.3524
21
-52.9614
0
LINE
8
BLACK
6
CONTINUOUS
10
50.3524
20
-52.9614
11
50.5367
21
-52.5846
0
LINE
8
BLACK
6
CONTINUOUS
10
50.5367
20
-52.5846
11
50.7514
21
-52.2242
0
LINE
8
BLACK
6
CONTINUOUS
10
50.7514
20
-52.2242
11
50.9951
21
-51.8829
0
LINE
8
BLACK
6
CONTINUOUS
10
50.9951
20
-51.8829
11
51.2662
21
-51.5628
0
LINE
8
BLACK
6
CONTINUOUS
10
51.2662
20
-51.5628
11
51.5628
21
-51.2662
0
LINE
8
BLACK
6
CONTINUOUS
10
51.5628
20
-51.2662
11
51.8829
21
-50.9951
0
LINE
8
BLACK
6
CONTINUOUS
10
51.8829
20
-50.9951
11
52.2242
21
-50.7514
0
LINE
8
BLACK
6
CONTINUOUS
10
52.2242
20
-50.7514
11
52.5846
21
-50.5367
0
LINE
8
BLACK
6
CONTINUOUS
10
52.5846
20
-50.5367
11
52.9614
21
-50.3524
0
LINE
8
BLACK
6
CONTINUOUS
10
52.9614
20
-50.3524
11
53.3521
21
-50.2
0
LINE
8
BLACK
6
CONTINUOUS
10
53.3521
20
-50.2
11
53.7542
21
-50.0803
0
LINE
8
BLACK
6
CONTINUOUS
10
53.7542
20
-50.0803
11
54.1647
21
-49.9942
0
LINE
8
BLACK
6
CONTINUOUS
10
54.1647
20
-49.9942
11
54.5809
21
-49.9423
0
LINE
8
BLACK
6
CONTINUOUS
10
54.5809
20
-49.9423
11
55
21
-49.925
0
LINE
8
BLACK
6
CONTINUOUS
10
55
20
-49.925
11
145
21
-49.925
0
LINE
8
BLACK
6
CONTINUOUS
10
55
20
-50.075
11
54.785
21
-50.075
0
LINE
8
BLACK
6
CONTINUOUS
10
54.785
20
-50.075
11
54.3565
21
-50.1125
0
LINE
8
BLACK
6
CONTINUOUS
10
54.3565
20
-50.1125
11
53.933
21
-50.1872
0
LINE
8
BLACK
6
CONTINUOUS
10
53.933
20
-50.1872
11
53.5176
21
-50.2985
0
LINE
8
BLACK
6
CONTINUOUS
10
53.5176
20
-50.2985
11
53.1135
21
-50.4456
0
LINE
8
BLACK
6
CONTINUOUS
10
53.1135
20
-50.4456
11
52.7237
21
-50.6273
0
LINE
8
BLACK
6
CONTINUOUS
10
52.7237
20
-50.6273
11
52.3513
21
-50.8423
0
LINE
8
BLACK
6
CONTINUOUS
10
52.3513
20
-50.8423
11
51.999
21
-51.089
0
LINE
8
BLACK
6
CONTINUOUS
10
51.999
20
-51.089
11
51.6695
21
-51.3654
0
LINE
8
BLACK
6
CONTINUOUS
10
51.6695
20
-51.3654
11
51.3654
21
-51.6695
0
LINE
8
BLACK
6
CONTINUOUS
10
51.3654
20
-51.6695
11
51.089
21
-51.999
0
LINE
8
BLACK
6
CONTINUOUS
10
51.089
20
-51.999
11
50.8423
21
-52.3513
0
LINE
8
BLACK
6
CONTINUOUS
10
50.8423
20
-52.3513
11
50.6273
21
-52.7237
0
LINE
8
BLACK
6
CONTINUOUS
10
50.6273
20
-52.7237
11
50.4456
21
-53.1135
0
LINE
8
BLACK
6
CONTINUOUS
10
50.4456
20
-53.1135
11
50.2985
21
-53.5176
0
LINE
8
BLACK
6
CONTINUOUS
10
50.2985
20
-53.5176
11
50.1872
21
-53.933
0
LINE
8
BLACK
6
CONTINUOUS
10
50.1872
20
-53.933
11
50.1125
21
-54.3565
0
LINE
8
BLACK
6
CONTINUOUS
10
50.1125
20
-54.3565
11
50.075
21
-54.785
0
LINE
8
BLACK
6
CONTINUOUS
10
50.075
20
-54.785
11
50.075
21
-55
0
LINE
8
BLACK
6
CONTINUOUS
10
50.075
20
-55
11
50.075
21
-145
0
LINE
8
BLACK
6
CONTINUOUS
10
50.075
20
-145
11
50.075
21
-145.215
0
LINE
8
BLACK
6
CONTINUOUS
10
50.075
20
-145.215
11
50.1125
21
-145.643
0
LINE
8
BLACK
6
CONTINUOUS
10
50.1125
20
-145.643
11
50.1872
21
-146.067
0
LINE
8
BLACK
6
CONTINUOUS
10
50.1872
20
-146.067
11
50.2985
21
-146.482
0
LINE
8
BLACK
6
CONTINUOUS
10
50.2985
20
-146.482
11
50.4456
21
-146.887
0
LINE
8
BLACK
6
CONTINUOUS
10
50.4456
20
-146.887
11
50.6273
21
-147.276
0
LINE
8
BLACK
6
CONTINUOUS
10
50.6273
20
-147.276
11
50.8423
21
-147.649
0
LINE
8
BLACK
6
CONTINUOUS
10
50.8423
20
-147.649
11
51.089
21
-148.001
0
LINE
8
BLACK
6
CONTINUOUS
10
51.089
20
-148.001
11
51.3654
21
-148.33
0
LINE
8
BLACK
6
CONTINUOUS
10
51.3654
20
-148.33
11
51.6695
21
-148.635
0
LINE
8
BLACK
6
CONTINUOUS
10
51.6695
20
-148.635
11
51.999
21
-148.911
0
LINE
8
BLACK
6
CONTINUOUS
10
51.999
20
-148.911
11
52.3513
21
-149.158
0
LINE
8
BLACK
6
CONTINUOUS
10
52.3513
20
-149.158
11
52.7237
21
-149.373
0
LINE
8
BLACK
6
CONTINUOUS
10
52.7237
20
-149.373
11
53.1135
21
-149.554
0
LINE
8
BLACK
6
CONTINUOUS
10
53.1135
20
-149.554
11
53.5176
21
-149.702
0
LINE
8
BLACK
6
CONTINUOUS
10
53.5176
20
-149.702
11
53.933
21
-149.813
0
LINE
8
BLACK
6
CONTINUOUS
10
53.933
20
-149.813
11
54.3565
21
-149.888
0
LINE
8
BLACK
6
CONTINUOUS
10
54.3565
20
-149.888
11
54.785
21
-149.925
0
LINE
8
BLACK
6
CONTINUOUS
10
54.785
20
-149.925
11
55
21
-149.925
0
LINE
8
BLACK
6
CONTINUOUS
10
55
20
-149.925
11
145
21
-149.925
0
LINE
8
BLACK
6
CONTINUOUS
10
145
20
-149.925
11
145.215
21
-149.925
0
LINE
8
BLACK
6
CONTINUOUS
10
145.215
20
-149.925
11
145.643
21
-149.888
0
LINE
8
BLACK
6
CONTINUOUS
10
145.643
20
-149.888
11
146.067
21
-149.813
0
LINE
8
BLACK
6
CONTINUOUS
10
146.067
20
-149.813
11
146.482
21
-149.702
0
LINE
8
BLACK
6
CONTINUOUS
10
146.482
20
-149.702
11
146.887
21
-149.554
0
LINE
8
BLACK
6
CONTINUOUS
10
146.887
20
-149.554
11
147.276
21
-149.373
0
LINE
8
BLACK
6
CONTINUOUS
10
147.276
20
-149.373
11
147.649
21
-149.158
0
LINE
8
BLACK
6
CONTINUOUS
10
147.649
20
-149.158
11
148.001
21
-148.911
0
LINE
8
BLACK
6
CONTINUOUS
10
148.001
20
-148.911
11
148.33
21
-148.635
0
LINE
8
BLACK
6
CONTINUOUS
10
148.33
20
-148.635
11
148.635
21
-148.33
0
LINE
8
BLACK
6
CONTINUOUS
10
148.635
20
-148.33
11
148.911
21
-148.001
0
LINE
8
BLACK
6
CONTINUOUS
10
148.911
20
-148.001
11
149.158
21
-147.649
0
LINE
8
BLACK
6
CONTINUOUS
10
149.158
20
-147.649
11
149.373
21
-147.276
0
LINE
8
BLACK
6
CONTINUOUS
10
149.373
20
-147.276
11
149.554
21
-146.887
0
LINE
8
BLACK
6
CONTINUOUS
10
149.554
20
-146.887
11
149.702
21
-146.482
0
LINE
8
BLACK
6
CONTINUOUS
10
149.702
20
-146.482
11
149.813
21
-146.067
0
LINE
8
BLACK
6
CONTINUOUS
10
149.813
20
-146.067
11
149.888
21
-145.643
0
LINE
8
BLACK
6
CONTINUOUS
10
149.888
20
-145.643
11
149.925
21
-145.215
0
LINE
8
BLACK
6
CONTINUOUS
10
149.925
20
-145.215
11
149.925
21
-145
0
LINE
8
BLACK
6
CONTINUOUS
10
149.925
20
-145
11
149.925
21
-55
0
LINE
8
BLACK
6
CONTINUOUS
10
149.925
20
-55
11
149.925
21
-54.785
0
LINE
8
BLACK
6
CONTINUOUS
10
149.925
20
-54.785
11
149.888
21
-54.3565
0
LINE
8
BLACK
6
CONTINUOUS
10
149.888
20
-54.3565
11
149.813
21
-53.933
0
LINE
8
BLACK
6
CONTINUOUS
10
149.813
20
-53.933
11
149.702
21
-53.5176
0
LINE
8
BLACK
6
CONTINUOUS
10
149.702
20
-53.5176
11
149.554
21
-53.1135
0
LINE
8
BLACK
6
CONTINUOUS
10
149.554
20
-53.1135
11
149.373
21
-52.7237
0
LINE
8
BLACK
6
CONTINUOUS
10
149.373
20
-52.7237
11
149.158
21
-52.3513
0
LINE
8
BLACK
6
CONTINUOUS
10
149.158
20
-52.3513
11
148.911
21
-51.999
0
LINE
8
BLACK
6
CONTINUOUS
10
148.911
20
-51.999
11
148.635
21
-51.6695
0
LINE
8
BLACK
6
CONTINUOUS
10
148.635
20
-51.6695
11
148.33
21
-51.3654
0
LINE
8
BLACK
6
CONTINUOUS
10
148.33
20
-51.3654
11
148.001
21
-51.089
0
LINE
8
BLACK
6
CONTINUOUS
10
148.001
20
-51.089
11
147.649
21
-50.8423
0
LINE
8
BLACK
6
CONTINUOUS
10
147.649
20
-50.8423
11
147.276
21
-50.6273
0
LINE
8
BLACK
6
CONTINUOUS
10
147.276
20
-50.6273
11
146.887
21
-50.4456
0
LINE
8
BLACK
6
CONTINUOUS
10
146.887
20
-50.4456
11
146.482
21
-50.2985
0
LINE
8
BLACK
6
CONTINUOUS
10
146.482
20
-50.2985
11
146.067
21
-50.1872
0
LINE
8
BLACK
6
CONTINUOUS
10
146.067
20
-50.1872
11
145.643
21
-50.1125
0
LINE
8
BLACK
6
CONTINUOUS
10
145.643
20
-50.1125
11
145.215
21
-50.075
0
LINE
8
BLACK
6
CONTINUOUS
10
145.215
20
-50.075
11
145
21
-50.075
0
LINE
8
BLACK
6
CONTINUOUS
10
145
20
-50.075
11
55
21
-50.075
  0
ENDSEC
  0
EOF
