%TF.GenerationSoftware,KiCad,Pcbnew,7.0.1*%
%TF.CreationDate,2023-06-29T20:29:04+03:00*%
%TF.ProjectId,Ethernet_switch_4out,45746865-726e-4657-945f-737769746368,rev?*%
%TF.SameCoordinates,Original*%
%TF.FileFunction,Soldermask,Bot*%
%TF.FilePolarity,Negative*%
%FSLAX46Y46*%
G04 Gerber Fmt 4.6, Leading zero omitted, Abs format (unit mm)*
G04 Created by KiCad (PCBNEW 7.0.1) date 2023-06-29 20:29:04*
%MOMM*%
%LPD*%
G01*
G04 APERTURE LIST*
G04 Aperture macros list*
%AMRoundRect*
0 Rectangle with rounded corners*
0 $1 Rounding radius*
0 $2 $3 $4 $5 $6 $7 $8 $9 X,Y pos of 4 corners*
0 Add a 4 corners polygon primitive as box body*
4,1,4,$2,$3,$4,$5,$6,$7,$8,$9,$2,$3,0*
0 Add four circle primitives for the rounded corners*
1,1,$1+$1,$2,$3*
1,1,$1+$1,$4,$5*
1,1,$1+$1,$6,$7*
1,1,$1+$1,$8,$9*
0 Add four rect primitives between the rounded corners*
20,1,$1+$1,$2,$3,$4,$5,0*
20,1,$1+$1,$4,$5,$6,$7,0*
20,1,$1+$1,$6,$7,$8,$9,0*
20,1,$1+$1,$8,$9,$2,$3,0*%
G04 Aperture macros list end*
%ADD10C,3.600000*%
%ADD11C,5.600000*%
%ADD12RoundRect,0.500000X-1.000000X-0.500000X1.000000X-0.500000X1.000000X0.500000X-1.000000X0.500000X0*%
%ADD13RoundRect,0.500000X1.000000X0.500000X-1.000000X0.500000X-1.000000X-0.500000X1.000000X-0.500000X0*%
%ADD14C,0.650000*%
%ADD15O,2.100000X1.000000*%
%ADD16O,1.600000X1.000000*%
%ADD17R,1.700000X1.700000*%
%ADD18O,1.700000X1.700000*%
%ADD19R,1.600000X1.600000*%
%ADD20C,1.600000*%
%ADD21R,3.960000X1.980000*%
%ADD22O,3.960000X1.980000*%
%ADD23R,4.400000X1.800000*%
%ADD24O,4.000000X1.800000*%
%ADD25O,1.800000X4.000000*%
%ADD26RoundRect,0.140000X0.219203X0.021213X0.021213X0.219203X-0.219203X-0.021213X-0.021213X-0.219203X0*%
%ADD27C,3.200000*%
%ADD28R,1.800000X1.800000*%
%ADD29C,1.800000*%
%ADD30C,2.000000*%
%ADD31C,3.000000*%
%ADD32RoundRect,0.140000X-0.219203X-0.021213X-0.021213X-0.219203X0.219203X0.021213X0.021213X0.219203X0*%
%ADD33RoundRect,0.140000X-0.021213X0.219203X-0.219203X0.021213X0.021213X-0.219203X0.219203X-0.021213X0*%
G04 APERTURE END LIST*
D10*
%TO.C,H2*%
X145000000Y-55000000D03*
D11*
X145000000Y-55000000D03*
%TD*%
D12*
%TO.C,J13*%
X141500000Y-75400000D03*
X144000000Y-83000000D03*
X139000000Y-83000000D03*
D13*
X144000000Y-131133000D03*
X139000000Y-131133000D03*
X141500000Y-138733000D03*
%TD*%
D14*
%TO.C,J4*%
X55600000Y-63110000D03*
X55600000Y-68890000D03*
D15*
X56130000Y-61680000D03*
D16*
X51950000Y-61680000D03*
D15*
X56130000Y-70320000D03*
D16*
X51950000Y-70320000D03*
%TD*%
D17*
%TO.C,J6*%
X110880000Y-72290000D03*
D18*
X110880000Y-69750000D03*
X110880000Y-67210000D03*
X110880000Y-64670000D03*
%TD*%
D19*
%TO.C,C64*%
X114580000Y-88915000D03*
D20*
X112080000Y-88915000D03*
%TD*%
D17*
%TO.C,J1*%
X122000000Y-60000000D03*
D18*
X122000000Y-57460000D03*
X122000000Y-54920000D03*
X122000000Y-52380000D03*
%TD*%
D21*
%TO.C,J12*%
X56790000Y-75515000D03*
D22*
X56790000Y-80515000D03*
%TD*%
D10*
%TO.C,H4*%
X55000000Y-145000000D03*
D11*
X55000000Y-145000000D03*
%TD*%
D17*
%TO.C,J11*%
X53320000Y-88625000D03*
D18*
X53320000Y-86085000D03*
%TD*%
D17*
%TO.C,J5*%
X110000000Y-52000000D03*
D18*
X112540000Y-52000000D03*
X115080000Y-52000000D03*
X117620000Y-52000000D03*
%TD*%
D17*
%TO.C,J3*%
X100940000Y-75140000D03*
D18*
X98400000Y-75140000D03*
X95860000Y-75140000D03*
X93320000Y-75140000D03*
X90780000Y-75140000D03*
X88240000Y-75140000D03*
%TD*%
D17*
%TO.C,J15*%
X121620000Y-78940000D03*
D18*
X121620000Y-76400000D03*
X121620000Y-73860000D03*
X121620000Y-71320000D03*
X121620000Y-68780000D03*
X121620000Y-66240000D03*
%TD*%
D10*
%TO.C,H3*%
X145000000Y-145000000D03*
D11*
X145000000Y-145000000D03*
%TD*%
D17*
%TO.C,J2*%
X98120000Y-81790000D03*
D18*
X98120000Y-84330000D03*
X98120000Y-86870000D03*
X98120000Y-89410000D03*
X98120000Y-91950000D03*
X98120000Y-94490000D03*
%TD*%
D10*
%TO.C,H1*%
X55000000Y-55000000D03*
D11*
X55000000Y-55000000D03*
%TD*%
D23*
%TO.C,J14*%
X134360000Y-64430000D03*
D24*
X134360000Y-58630000D03*
D25*
X129560000Y-61430000D03*
%TD*%
D19*
%TO.C,C69*%
X113890000Y-107910000D03*
D20*
X113890000Y-110410000D03*
%TD*%
D26*
%TO.C,C7*%
X90039411Y-111869411D03*
X89360589Y-111190589D03*
%TD*%
D27*
%TO.C,J9*%
X97000000Y-141890000D03*
X85570000Y-141890000D03*
D28*
X95730000Y-135540000D03*
D29*
X94460000Y-133000000D03*
X93190000Y-135540000D03*
X91920000Y-133000000D03*
X90650000Y-135540000D03*
X89380000Y-133000000D03*
X88110000Y-135540000D03*
X86840000Y-133000000D03*
D30*
X97920000Y-145950000D03*
X95380000Y-145950000D03*
X87200000Y-145950000D03*
X84660000Y-145950000D03*
D31*
X99040000Y-138840000D03*
X83540000Y-138840000D03*
%TD*%
D27*
%TO.C,J8*%
X76000000Y-141890000D03*
X64570000Y-141890000D03*
D28*
X74730000Y-135540000D03*
D29*
X73460000Y-133000000D03*
X72190000Y-135540000D03*
X70920000Y-133000000D03*
X69650000Y-135540000D03*
X68380000Y-133000000D03*
X67110000Y-135540000D03*
X65840000Y-133000000D03*
D30*
X76920000Y-145950000D03*
X74380000Y-145950000D03*
X66200000Y-145950000D03*
X63660000Y-145950000D03*
D31*
X78040000Y-138840000D03*
X62540000Y-138840000D03*
%TD*%
D27*
%TO.C,J7*%
X58110000Y-120000000D03*
X58110000Y-108570000D03*
D28*
X64460000Y-118730000D03*
D29*
X67000000Y-117460000D03*
X64460000Y-116190000D03*
X67000000Y-114920000D03*
X64460000Y-113650000D03*
X67000000Y-112380000D03*
X64460000Y-111110000D03*
X67000000Y-109840000D03*
D30*
X54050000Y-120920000D03*
X54050000Y-118380000D03*
X54050000Y-110200000D03*
X54050000Y-107660000D03*
D31*
X61160000Y-122040000D03*
X61160000Y-106540000D03*
%TD*%
D32*
%TO.C,C9*%
X93371178Y-114821178D03*
X94050000Y-115500000D03*
%TD*%
D27*
%TO.C,J10*%
X118000000Y-141890000D03*
X106570000Y-141890000D03*
D28*
X116730000Y-135540000D03*
D29*
X115460000Y-133000000D03*
X114190000Y-135540000D03*
X112920000Y-133000000D03*
X111650000Y-135540000D03*
X110380000Y-133000000D03*
X109110000Y-135540000D03*
X107840000Y-133000000D03*
D30*
X118920000Y-145950000D03*
X116380000Y-145950000D03*
X108200000Y-145950000D03*
X105660000Y-145950000D03*
D31*
X120040000Y-138840000D03*
X104540000Y-138840000D03*
%TD*%
D33*
%TO.C,C1*%
X90640000Y-114870000D03*
X89961178Y-115548822D03*
%TD*%
D26*
%TO.C,C2*%
X90739411Y-111189411D03*
X90060589Y-110510589D03*
%TD*%
M02*
