%TF.GenerationSoftware,KiCad,Pcbnew,7.0.1*%
%TF.CreationDate,2023-06-29T20:29:04+03:00*%
%TF.ProjectId,Ethernet_switch_4out,45746865-726e-4657-945f-737769746368,rev?*%
%TF.SameCoordinates,Original*%
%TF.FileFunction,Soldermask,Top*%
%TF.FilePolarity,Negative*%
%FSLAX46Y46*%
G04 Gerber Fmt 4.6, Leading zero omitted, Abs format (unit mm)*
G04 Created by KiCad (PCBNEW 7.0.1) date 2023-06-29 20:29:04*
%MOMM*%
%LPD*%
G01*
G04 APERTURE LIST*
G04 Aperture macros list*
%AMRoundRect*
0 Rectangle with rounded corners*
0 $1 Rounding radius*
0 $2 $3 $4 $5 $6 $7 $8 $9 X,Y pos of 4 corners*
0 Add a 4 corners polygon primitive as box body*
4,1,4,$2,$3,$4,$5,$6,$7,$8,$9,$2,$3,0*
0 Add four circle primitives for the rounded corners*
1,1,$1+$1,$2,$3*
1,1,$1+$1,$4,$5*
1,1,$1+$1,$6,$7*
1,1,$1+$1,$8,$9*
0 Add four rect primitives between the rounded corners*
20,1,$1+$1,$2,$3,$4,$5,0*
20,1,$1+$1,$4,$5,$6,$7,0*
20,1,$1+$1,$6,$7,$8,$9,0*
20,1,$1+$1,$8,$9,$2,$3,0*%
%AMRotRect*
0 Rectangle, with rotation*
0 The origin of the aperture is its center*
0 $1 length*
0 $2 width*
0 $3 Rotation angle, in degrees counterclockwise*
0 Add horizontal line*
21,1,$1,$2,0,0,$3*%
%AMFreePoly0*
4,1,19,0.500000,-0.750000,0.000000,-0.750000,0.000000,-0.744911,-0.071157,-0.744911,-0.207708,-0.704816,-0.327430,-0.627875,-0.420627,-0.520320,-0.479746,-0.390866,-0.500000,-0.250000,-0.500000,0.250000,-0.479746,0.390866,-0.420627,0.520320,-0.327430,0.627875,-0.207708,0.704816,-0.071157,0.744911,0.000000,0.744911,0.000000,0.750000,0.500000,0.750000,0.500000,-0.750000,0.500000,-0.750000,
$1*%
%AMFreePoly1*
4,1,19,0.000000,0.744911,0.071157,0.744911,0.207708,0.704816,0.327430,0.627875,0.420627,0.520320,0.479746,0.390866,0.500000,0.250000,0.500000,-0.250000,0.479746,-0.390866,0.420627,-0.520320,0.327430,-0.627875,0.207708,-0.704816,0.071157,-0.744911,0.000000,-0.744911,0.000000,-0.750000,-0.500000,-0.750000,-0.500000,0.750000,0.000000,0.750000,0.000000,0.744911,0.000000,0.744911,
$1*%
G04 Aperture macros list end*
%ADD10C,3.600000*%
%ADD11C,5.600000*%
%ADD12RoundRect,0.135000X0.035355X-0.226274X0.226274X-0.035355X-0.035355X0.226274X-0.226274X0.035355X0*%
%ADD13RoundRect,0.250000X-0.325000X-0.650000X0.325000X-0.650000X0.325000X0.650000X-0.325000X0.650000X0*%
%ADD14RoundRect,0.500000X-1.000000X-0.500000X1.000000X-0.500000X1.000000X0.500000X-1.000000X0.500000X0*%
%ADD15RoundRect,0.500000X1.000000X0.500000X-1.000000X0.500000X-1.000000X-0.500000X1.000000X-0.500000X0*%
%ADD16RoundRect,0.250000X-0.300000X-0.300000X0.300000X-0.300000X0.300000X0.300000X-0.300000X0.300000X0*%
%ADD17RoundRect,0.140000X0.219203X0.021213X0.021213X0.219203X-0.219203X-0.021213X-0.021213X-0.219203X0*%
%ADD18R,1.500000X0.900000*%
%ADD19R,0.900000X1.500000*%
%ADD20R,0.900000X0.900000*%
%ADD21RoundRect,0.225000X-0.225000X-0.250000X0.225000X-0.250000X0.225000X0.250000X-0.225000X0.250000X0*%
%ADD22RoundRect,0.225000X0.250000X-0.225000X0.250000X0.225000X-0.250000X0.225000X-0.250000X-0.225000X0*%
%ADD23RoundRect,0.150000X0.825000X0.150000X-0.825000X0.150000X-0.825000X-0.150000X0.825000X-0.150000X0*%
%ADD24RoundRect,0.150000X0.150000X-0.512500X0.150000X0.512500X-0.150000X0.512500X-0.150000X-0.512500X0*%
%ADD25RoundRect,0.200000X-0.275000X0.200000X-0.275000X-0.200000X0.275000X-0.200000X0.275000X0.200000X0*%
%ADD26RoundRect,0.135000X0.135000X0.185000X-0.135000X0.185000X-0.135000X-0.185000X0.135000X-0.185000X0*%
%ADD27RoundRect,0.140000X-0.021213X0.219203X-0.219203X0.021213X0.021213X-0.219203X0.219203X-0.021213X0*%
%ADD28RoundRect,0.135000X0.226274X0.035355X0.035355X0.226274X-0.226274X-0.035355X-0.035355X-0.226274X0*%
%ADD29RoundRect,0.140000X0.170000X-0.140000X0.170000X0.140000X-0.170000X0.140000X-0.170000X-0.140000X0*%
%ADD30RoundRect,0.243750X0.243750X0.456250X-0.243750X0.456250X-0.243750X-0.456250X0.243750X-0.456250X0*%
%ADD31FreePoly0,0.000000*%
%ADD32FreePoly1,0.000000*%
%ADD33RoundRect,0.250000X0.262500X0.450000X-0.262500X0.450000X-0.262500X-0.450000X0.262500X-0.450000X0*%
%ADD34RoundRect,0.135000X0.185000X-0.135000X0.185000X0.135000X-0.185000X0.135000X-0.185000X-0.135000X0*%
%ADD35RoundRect,0.250000X-1.000000X-0.650000X1.000000X-0.650000X1.000000X0.650000X-1.000000X0.650000X0*%
%ADD36RoundRect,0.200000X0.200000X0.275000X-0.200000X0.275000X-0.200000X-0.275000X0.200000X-0.275000X0*%
%ADD37RoundRect,0.218750X0.218750X0.256250X-0.218750X0.256250X-0.218750X-0.256250X0.218750X-0.256250X0*%
%ADD38C,0.650000*%
%ADD39R,1.450000X0.600000*%
%ADD40R,1.450000X0.300000*%
%ADD41O,2.100000X1.000000*%
%ADD42O,1.600000X1.000000*%
%ADD43RoundRect,0.135000X-0.185000X0.135000X-0.185000X-0.135000X0.185000X-0.135000X0.185000X0.135000X0*%
%ADD44R,0.700000X1.000000*%
%ADD45RoundRect,0.250000X0.300000X0.300000X-0.300000X0.300000X-0.300000X-0.300000X0.300000X-0.300000X0*%
%ADD46RoundRect,0.200000X0.275000X-0.200000X0.275000X0.200000X-0.275000X0.200000X-0.275000X-0.200000X0*%
%ADD47RoundRect,0.250000X0.312500X0.625000X-0.312500X0.625000X-0.312500X-0.625000X0.312500X-0.625000X0*%
%ADD48RoundRect,0.225000X0.225000X0.250000X-0.225000X0.250000X-0.225000X-0.250000X0.225000X-0.250000X0*%
%ADD49RoundRect,0.200000X-0.200000X-0.275000X0.200000X-0.275000X0.200000X0.275000X-0.200000X0.275000X0*%
%ADD50R,1.700000X1.700000*%
%ADD51O,1.700000X1.700000*%
%ADD52R,1.600000X1.600000*%
%ADD53C,1.600000*%
%ADD54RoundRect,0.250000X0.300000X-0.300000X0.300000X0.300000X-0.300000X0.300000X-0.300000X-0.300000X0*%
%ADD55RoundRect,0.250000X0.650000X-0.325000X0.650000X0.325000X-0.650000X0.325000X-0.650000X-0.325000X0*%
%ADD56C,1.000000*%
%ADD57RoundRect,0.140000X0.021213X-0.219203X0.219203X-0.021213X-0.021213X0.219203X-0.219203X0.021213X0*%
%ADD58RoundRect,0.150000X0.587500X0.150000X-0.587500X0.150000X-0.587500X-0.150000X0.587500X-0.150000X0*%
%ADD59RoundRect,0.140000X-0.219203X-0.021213X-0.021213X-0.219203X0.219203X0.021213X0.021213X0.219203X0*%
%ADD60R,3.960000X1.980000*%
%ADD61O,3.960000X1.980000*%
%ADD62RoundRect,0.225000X-0.250000X0.225000X-0.250000X-0.225000X0.250000X-0.225000X0.250000X0.225000X0*%
%ADD63RoundRect,0.250000X-0.262500X-0.450000X0.262500X-0.450000X0.262500X0.450000X-0.262500X0.450000X0*%
%ADD64RoundRect,0.237500X-0.250000X-0.237500X0.250000X-0.237500X0.250000X0.237500X-0.250000X0.237500X0*%
%ADD65RoundRect,0.140000X-0.170000X0.140000X-0.170000X-0.140000X0.170000X-0.140000X0.170000X0.140000X0*%
%ADD66RoundRect,0.150000X0.150000X-0.825000X0.150000X0.825000X-0.150000X0.825000X-0.150000X-0.825000X0*%
%ADD67R,3.000000X2.290000*%
%ADD68RoundRect,0.237500X0.250000X0.237500X-0.250000X0.237500X-0.250000X-0.237500X0.250000X-0.237500X0*%
%ADD69RoundRect,0.140000X0.140000X0.170000X-0.140000X0.170000X-0.140000X-0.170000X0.140000X-0.170000X0*%
%ADD70RoundRect,0.140000X-0.140000X-0.170000X0.140000X-0.170000X0.140000X0.170000X-0.140000X0.170000X0*%
%ADD71RoundRect,0.225000X0.335876X0.017678X0.017678X0.335876X-0.335876X-0.017678X-0.017678X-0.335876X0*%
%ADD72RoundRect,0.135000X-0.135000X-0.185000X0.135000X-0.185000X0.135000X0.185000X-0.135000X0.185000X0*%
%ADD73RoundRect,0.243750X-0.243750X-0.456250X0.243750X-0.456250X0.243750X0.456250X-0.243750X0.456250X0*%
%ADD74RoundRect,0.250000X-0.300000X0.300000X-0.300000X-0.300000X0.300000X-0.300000X0.300000X0.300000X0*%
%ADD75RoundRect,0.250000X-0.450000X0.262500X-0.450000X-0.262500X0.450000X-0.262500X0.450000X0.262500X0*%
%ADD76RotRect,1.400000X1.200000X225.000000*%
%ADD77RoundRect,0.050000X-0.212132X-0.282843X0.282843X0.212132X0.212132X0.282843X-0.282843X-0.212132X0*%
%ADD78RoundRect,0.050000X0.212132X-0.282843X0.282843X-0.212132X-0.212132X0.282843X-0.282843X0.212132X0*%
%ADD79RotRect,4.600000X4.600000X45.000000*%
%ADD80R,4.400000X1.800000*%
%ADD81O,4.000000X1.800000*%
%ADD82O,1.800000X4.000000*%
%ADD83RoundRect,0.450000X0.450000X2.450000X-0.450000X2.450000X-0.450000X-2.450000X0.450000X-2.450000X0*%
%ADD84RoundRect,0.250000X1.000000X0.650000X-1.000000X0.650000X-1.000000X-0.650000X1.000000X-0.650000X0*%
%ADD85R,1.000000X0.700000*%
%ADD86RoundRect,0.250000X-0.312500X-0.625000X0.312500X-0.625000X0.312500X0.625000X-0.312500X0.625000X0*%
%ADD87RoundRect,0.250000X-0.650000X1.000000X-0.650000X-1.000000X0.650000X-1.000000X0.650000X1.000000X0*%
%ADD88RoundRect,0.250000X0.650000X-1.000000X0.650000X1.000000X-0.650000X1.000000X-0.650000X-1.000000X0*%
%ADD89RoundRect,0.125000X0.521491X-0.415425X-0.415425X0.521491X-0.521491X0.415425X0.415425X-0.521491X0*%
%ADD90RoundRect,0.125000X0.521491X0.415425X0.415425X0.521491X-0.521491X-0.415425X-0.415425X-0.521491X0*%
%ADD91RoundRect,0.100000X0.100000X-0.712500X0.100000X0.712500X-0.100000X0.712500X-0.100000X-0.712500X0*%
%ADD92R,1.400000X1.200000*%
%ADD93C,3.200000*%
%ADD94R,1.800000X1.800000*%
%ADD95C,1.800000*%
%ADD96C,2.000000*%
%ADD97C,3.000000*%
G04 APERTURE END LIST*
D10*
%TO.C,H2*%
X145000000Y-55000000D03*
D11*
X145000000Y-55000000D03*
%TD*%
D12*
%TO.C,R11*%
X83479376Y-112880624D03*
X84200624Y-112159376D03*
%TD*%
D13*
%TO.C,C37*%
X57915000Y-59370000D03*
X60865000Y-59370000D03*
%TD*%
D14*
%TO.C,J13*%
X141500000Y-75400000D03*
X144000000Y-83000000D03*
X139000000Y-83000000D03*
D15*
X144000000Y-131133000D03*
X139000000Y-131133000D03*
X141500000Y-138733000D03*
%TD*%
D16*
%TO.C,D29*%
X109200000Y-127100000D03*
X112000000Y-127100000D03*
%TD*%
D17*
%TO.C,C25*%
X82969411Y-113679411D03*
X82290589Y-113000589D03*
%TD*%
D16*
%TO.C,D10*%
X64400000Y-121500000D03*
X67200000Y-121500000D03*
%TD*%
D18*
%TO.C,U1*%
X86750000Y-51740000D03*
X86750000Y-53010000D03*
X86750000Y-54280000D03*
X86750000Y-55550000D03*
X86750000Y-56820000D03*
X86750000Y-58090000D03*
X86750000Y-59360000D03*
X86750000Y-60630000D03*
X86750000Y-61900000D03*
X86750000Y-63170000D03*
X86750000Y-64440000D03*
X86750000Y-65710000D03*
X86750000Y-66980000D03*
X86750000Y-68250000D03*
D19*
X88515000Y-69500000D03*
X89785000Y-69500000D03*
X91055000Y-69500000D03*
X92325000Y-69500000D03*
X93595000Y-69500000D03*
X94865000Y-69500000D03*
X96135000Y-69500000D03*
X97405000Y-69500000D03*
X98675000Y-69500000D03*
X99945000Y-69500000D03*
X101215000Y-69500000D03*
X102485000Y-69500000D03*
D18*
X104250000Y-68250000D03*
X104250000Y-66980000D03*
X104250000Y-65710000D03*
X104250000Y-64440000D03*
X104250000Y-63170000D03*
X104250000Y-61900000D03*
X104250000Y-60630000D03*
X104250000Y-59360000D03*
X104250000Y-58090000D03*
X104250000Y-56820000D03*
X104250000Y-55550000D03*
X104250000Y-54280000D03*
X104250000Y-53010000D03*
X104250000Y-51740000D03*
D20*
X92600000Y-58060000D03*
X92600000Y-59460000D03*
X92600000Y-60860000D03*
X94000000Y-58060000D03*
X94000000Y-59460000D03*
X94000000Y-60860000D03*
X95400000Y-58060000D03*
X95400000Y-59460000D03*
X95400000Y-60860000D03*
%TD*%
D21*
%TO.C,C39*%
X58025000Y-113200000D03*
X59575000Y-113200000D03*
%TD*%
D22*
%TO.C,C42*%
X69900000Y-141675000D03*
X69900000Y-140125000D03*
%TD*%
D23*
%TO.C,U5*%
X115715000Y-59715000D03*
X115715000Y-58445000D03*
X115715000Y-57175000D03*
X115715000Y-55905000D03*
X110765000Y-55905000D03*
X110765000Y-57175000D03*
X110765000Y-58445000D03*
X110765000Y-59715000D03*
%TD*%
D24*
%TO.C,U12*%
X71930000Y-79190000D03*
X73830000Y-79190000D03*
X72880000Y-76915000D03*
%TD*%
D25*
%TO.C,R25*%
X101060000Y-144475000D03*
X101060000Y-146125000D03*
%TD*%
D26*
%TO.C,R2*%
X82360000Y-111790000D03*
X81340000Y-111790000D03*
%TD*%
D22*
%TO.C,C67*%
X107070000Y-97845000D03*
X107070000Y-96295000D03*
%TD*%
D26*
%TO.C,R17*%
X98060000Y-101460000D03*
X97040000Y-101460000D03*
%TD*%
D27*
%TO.C,C16*%
X91849411Y-107450589D03*
X91170589Y-108129411D03*
%TD*%
D28*
%TO.C,R8*%
X84520624Y-109850624D03*
X83799376Y-109129376D03*
%TD*%
D24*
%TO.C,U6*%
X71800000Y-85190000D03*
X73700000Y-85190000D03*
X72750000Y-82915000D03*
%TD*%
D29*
%TO.C,C52*%
X115040000Y-94385000D03*
X115040000Y-93425000D03*
%TD*%
D30*
%TO.C,D2*%
X88526599Y-89404227D03*
X86651599Y-89404227D03*
%TD*%
D13*
%TO.C,C40*%
X60905000Y-125320000D03*
X63855000Y-125320000D03*
%TD*%
D31*
%TO.C,JP1*%
X64530000Y-68730000D03*
D32*
X65830000Y-68730000D03*
%TD*%
D33*
%TO.C,R41*%
X69580000Y-68010000D03*
X67755000Y-68010000D03*
%TD*%
D34*
%TO.C,R6*%
X84010000Y-106120000D03*
X84010000Y-105100000D03*
%TD*%
D25*
%TO.C,R27*%
X100860000Y-81965000D03*
X100860000Y-83615000D03*
%TD*%
D26*
%TO.C,R1*%
X82380000Y-110780000D03*
X81360000Y-110780000D03*
%TD*%
D25*
%TO.C,R26*%
X111480000Y-146195000D03*
X111480000Y-147845000D03*
%TD*%
%TO.C,R22*%
X80060000Y-144285000D03*
X80060000Y-145935000D03*
%TD*%
D35*
%TO.C,D1*%
X93940000Y-104380000D03*
X97940000Y-104380000D03*
%TD*%
D36*
%TO.C,R77*%
X118510000Y-73320000D03*
X116860000Y-73320000D03*
%TD*%
D37*
%TO.C,D8*%
X61335000Y-85770000D03*
X59760000Y-85770000D03*
%TD*%
D33*
%TO.C,R40*%
X69572500Y-70050000D03*
X67747500Y-70050000D03*
%TD*%
D38*
%TO.C,J4*%
X55600000Y-63110000D03*
X55600000Y-68890000D03*
D39*
X57045000Y-62750000D03*
X57045000Y-63550000D03*
D40*
X57045000Y-64750000D03*
X57045000Y-65750000D03*
X57045000Y-66250000D03*
X57045000Y-67250000D03*
D39*
X57045000Y-68450000D03*
X57045000Y-69250000D03*
X57045000Y-69250000D03*
X57045000Y-68450000D03*
D40*
X57045000Y-67750000D03*
X57045000Y-66750000D03*
X57045000Y-65250000D03*
X57045000Y-64250000D03*
D39*
X57045000Y-63550000D03*
X57045000Y-62750000D03*
D41*
X56130000Y-61680000D03*
D42*
X51950000Y-61680000D03*
D41*
X56130000Y-70320000D03*
D42*
X51950000Y-70320000D03*
%TD*%
D43*
%TO.C,R52*%
X71400000Y-123890000D03*
X71400000Y-124910000D03*
%TD*%
D27*
%TO.C,C6*%
X93539411Y-107420589D03*
X92860589Y-108099411D03*
%TD*%
D44*
%TO.C,SW1*%
X71040000Y-58760000D03*
X71040000Y-52760000D03*
X74740000Y-58760000D03*
X74740000Y-52760000D03*
%TD*%
D45*
%TO.C,D26*%
X98700000Y-127100000D03*
X95900000Y-127100000D03*
%TD*%
D43*
%TO.C,R49*%
X74800000Y-124790000D03*
X74800000Y-125810000D03*
%TD*%
D23*
%TO.C,U10*%
X116875000Y-79105000D03*
X116875000Y-77835000D03*
X116875000Y-76565000D03*
X116875000Y-75295000D03*
X111925000Y-75295000D03*
X111925000Y-76565000D03*
X111925000Y-77835000D03*
X111925000Y-79105000D03*
%TD*%
D46*
%TO.C,R76*%
X117620000Y-91090000D03*
X117620000Y-89440000D03*
%TD*%
D22*
%TO.C,C14*%
X82340000Y-53235000D03*
X82340000Y-51685000D03*
%TD*%
D26*
%TO.C,R18*%
X98040000Y-100420000D03*
X97020000Y-100420000D03*
%TD*%
D45*
%TO.C,D32*%
X119800000Y-127200000D03*
X117000000Y-127200000D03*
%TD*%
D47*
%TO.C,R73*%
X78332500Y-86430000D03*
X75407500Y-86430000D03*
%TD*%
D24*
%TO.C,U4*%
X60140000Y-66737500D03*
X61090000Y-66737500D03*
X62040000Y-66737500D03*
X62040000Y-64462500D03*
X61090000Y-64462500D03*
X60140000Y-64462500D03*
%TD*%
D27*
%TO.C,C22*%
X85149411Y-100480589D03*
X84470589Y-101159411D03*
%TD*%
D48*
%TO.C,C34*%
X61945000Y-61610000D03*
X60395000Y-61610000D03*
%TD*%
D49*
%TO.C,R70*%
X119190000Y-100185000D03*
X120840000Y-100185000D03*
%TD*%
D50*
%TO.C,J6*%
X110880000Y-72290000D03*
D51*
X110880000Y-69750000D03*
X110880000Y-67210000D03*
X110880000Y-64670000D03*
%TD*%
D52*
%TO.C,C64*%
X114580000Y-88915000D03*
D53*
X112080000Y-88915000D03*
%TD*%
D54*
%TO.C,D28*%
X119300000Y-135600000D03*
X119300000Y-132800000D03*
%TD*%
D55*
%TO.C,C46*%
X81100000Y-136175000D03*
X81100000Y-133225000D03*
%TD*%
D46*
%TO.C,R75*%
X119190000Y-91075000D03*
X119190000Y-89425000D03*
%TD*%
D56*
%TO.C,FID1*%
X55000000Y-140000000D03*
%TD*%
D50*
%TO.C,J1*%
X122000000Y-60000000D03*
D51*
X122000000Y-57460000D03*
X122000000Y-54920000D03*
X122000000Y-52380000D03*
%TD*%
D57*
%TO.C,C4*%
X92640589Y-118289411D03*
X93319411Y-117610589D03*
%TD*%
D33*
%TO.C,FB1*%
X62112500Y-70910000D03*
X60287500Y-70910000D03*
%TD*%
D36*
%TO.C,R53*%
X64765000Y-87220000D03*
X63115000Y-87220000D03*
%TD*%
D58*
%TO.C,U9*%
X109630000Y-77170000D03*
X109630000Y-75270000D03*
X107755000Y-76220000D03*
%TD*%
D26*
%TO.C,R9*%
X87240000Y-104945000D03*
X86220000Y-104945000D03*
%TD*%
D43*
%TO.C,R23*%
X121040000Y-112950000D03*
X121040000Y-113970000D03*
%TD*%
D34*
%TO.C,R32*%
X58820000Y-64670000D03*
X58820000Y-63650000D03*
%TD*%
D59*
%TO.C,C23*%
X85700000Y-107030000D03*
X86378822Y-107708822D03*
%TD*%
D60*
%TO.C,J12*%
X56790000Y-75515000D03*
D61*
X56790000Y-80515000D03*
%TD*%
D54*
%TO.C,D16*%
X77500000Y-135700000D03*
X77500000Y-132900000D03*
%TD*%
D34*
%TO.C,R5*%
X85140000Y-105980000D03*
X85140000Y-104960000D03*
%TD*%
D62*
%TO.C,C35*%
X70260000Y-77397500D03*
X70260000Y-78947500D03*
%TD*%
D63*
%TO.C,R28*%
X90124099Y-89424227D03*
X91949099Y-89424227D03*
%TD*%
D64*
%TO.C,R3*%
X78077500Y-71020000D03*
X79902500Y-71020000D03*
%TD*%
D22*
%TO.C,C44*%
X92100000Y-141775000D03*
X92100000Y-140225000D03*
%TD*%
D49*
%TO.C,R66*%
X82945000Y-73380000D03*
X84595000Y-73380000D03*
%TD*%
D43*
%TO.C,R57*%
X93700000Y-123790000D03*
X93700000Y-124810000D03*
%TD*%
D65*
%TO.C,C13*%
X85110000Y-51995000D03*
X85110000Y-52955000D03*
%TD*%
D66*
%TO.C,U13*%
X116410000Y-98035000D03*
X117680000Y-98035000D03*
X118950000Y-98035000D03*
X120220000Y-98035000D03*
X120220000Y-93085000D03*
X118950000Y-93085000D03*
X117680000Y-93085000D03*
X116410000Y-93085000D03*
D67*
X118315000Y-95560000D03*
%TD*%
D45*
%TO.C,D27*%
X113800000Y-138200000D03*
X111000000Y-138200000D03*
%TD*%
D43*
%TO.C,R59*%
X116800000Y-124380000D03*
X116800000Y-125400000D03*
%TD*%
D55*
%TO.C,C49*%
X103780000Y-135765000D03*
X103780000Y-132815000D03*
%TD*%
D45*
%TO.C,D21*%
X92800000Y-138100000D03*
X90000000Y-138100000D03*
%TD*%
D10*
%TO.C,H4*%
X55000000Y-145000000D03*
D11*
X55000000Y-145000000D03*
%TD*%
D27*
%TO.C,C5*%
X97539411Y-113400589D03*
X96860589Y-114079411D03*
%TD*%
D50*
%TO.C,J11*%
X53320000Y-88625000D03*
D51*
X53320000Y-86085000D03*
%TD*%
D49*
%TO.C,R67*%
X120695000Y-90995000D03*
X122345000Y-90995000D03*
%TD*%
D22*
%TO.C,C47*%
X113200000Y-142012500D03*
X113200000Y-140462500D03*
%TD*%
D68*
%TO.C,R15*%
X73572500Y-103040000D03*
X71747500Y-103040000D03*
%TD*%
D69*
%TO.C,C32*%
X102675000Y-109080000D03*
X101715000Y-109080000D03*
%TD*%
D26*
%TO.C,R20*%
X86710000Y-98740000D03*
X85690000Y-98740000D03*
%TD*%
D44*
%TO.C,SW3*%
X63730000Y-58750000D03*
X63730000Y-52750000D03*
X67430000Y-58750000D03*
X67430000Y-52750000D03*
%TD*%
D57*
%TO.C,C51*%
X88250589Y-117069411D03*
X88929411Y-116390589D03*
%TD*%
D50*
%TO.C,J5*%
X110000000Y-52000000D03*
D51*
X112540000Y-52000000D03*
X115080000Y-52000000D03*
X117620000Y-52000000D03*
%TD*%
D45*
%TO.C,D31*%
X118200000Y-129500000D03*
X115400000Y-129500000D03*
%TD*%
D49*
%TO.C,R39*%
X63765000Y-61610000D03*
X65415000Y-61610000D03*
%TD*%
D54*
%TO.C,D14*%
X73100000Y-120800000D03*
X73100000Y-118000000D03*
%TD*%
D43*
%TO.C,R56*%
X92680000Y-124390000D03*
X92680000Y-125410000D03*
%TD*%
D54*
%TO.C,D22*%
X98400000Y-135600000D03*
X98400000Y-132800000D03*
%TD*%
D70*
%TO.C,C63*%
X121115000Y-114920000D03*
X122075000Y-114920000D03*
%TD*%
D30*
%TO.C,D4*%
X88579099Y-85424227D03*
X86704099Y-85424227D03*
%TD*%
D69*
%TO.C,C58*%
X112110000Y-80430000D03*
X111150000Y-80430000D03*
%TD*%
D57*
%TO.C,C50*%
X117750000Y-55480000D03*
X118428822Y-54801178D03*
%TD*%
D43*
%TO.C,R50*%
X73800000Y-124790000D03*
X73800000Y-125810000D03*
%TD*%
%TO.C,R64*%
X122030000Y-112960000D03*
X122030000Y-113980000D03*
%TD*%
D34*
%TO.C,R69*%
X109160000Y-79420000D03*
X109160000Y-78400000D03*
%TD*%
D71*
%TO.C,C28*%
X84858008Y-94808008D03*
X83761992Y-93711992D03*
%TD*%
D72*
%TO.C,R33*%
X59070000Y-68190000D03*
X60090000Y-68190000D03*
%TD*%
D73*
%TO.C,D7*%
X71152500Y-68015000D03*
X73027500Y-68015000D03*
%TD*%
D49*
%TO.C,R42*%
X56552500Y-85760000D03*
X58202500Y-85760000D03*
%TD*%
D59*
%TO.C,C11*%
X89830589Y-108150589D03*
X90509411Y-108829411D03*
%TD*%
D66*
%TO.C,U8*%
X121005000Y-121680000D03*
X122275000Y-121680000D03*
X123545000Y-121680000D03*
X124815000Y-121680000D03*
X124815000Y-116730000D03*
X123545000Y-116730000D03*
X122275000Y-116730000D03*
X121005000Y-116730000D03*
%TD*%
D16*
%TO.C,D23*%
X88800000Y-127100000D03*
X91600000Y-127100000D03*
%TD*%
D50*
%TO.C,J3*%
X100940000Y-75140000D03*
D51*
X98400000Y-75140000D03*
X95860000Y-75140000D03*
X93320000Y-75140000D03*
X90780000Y-75140000D03*
X88240000Y-75140000D03*
%TD*%
D50*
%TO.C,J15*%
X121620000Y-78940000D03*
D51*
X121620000Y-76400000D03*
X121620000Y-73860000D03*
X121620000Y-71320000D03*
X121620000Y-68780000D03*
X121620000Y-66240000D03*
%TD*%
D74*
%TO.C,D12*%
X73000000Y-111200000D03*
X73000000Y-114000000D03*
%TD*%
D36*
%TO.C,R35*%
X114845000Y-61360000D03*
X113195000Y-61360000D03*
%TD*%
D17*
%TO.C,C17*%
X84419411Y-96169411D03*
X83740589Y-95490589D03*
%TD*%
D49*
%TO.C,R48*%
X70395000Y-89900000D03*
X72045000Y-89900000D03*
%TD*%
D22*
%TO.C,C15*%
X83860000Y-53235000D03*
X83860000Y-51685000D03*
%TD*%
D62*
%TO.C,C60*%
X70090000Y-83155000D03*
X70090000Y-84705000D03*
%TD*%
D10*
%TO.C,H3*%
X145000000Y-145000000D03*
D11*
X145000000Y-145000000D03*
%TD*%
D43*
%TO.C,R51*%
X72400000Y-123190000D03*
X72400000Y-124210000D03*
%TD*%
D50*
%TO.C,J2*%
X98120000Y-81790000D03*
D51*
X98120000Y-84330000D03*
X98120000Y-86870000D03*
X98120000Y-89410000D03*
X98120000Y-91950000D03*
X98120000Y-94490000D03*
%TD*%
D43*
%TO.C,R61*%
X112400000Y-124380000D03*
X112400000Y-125400000D03*
%TD*%
D70*
%TO.C,C57*%
X107230000Y-78450000D03*
X108190000Y-78450000D03*
%TD*%
D49*
%TO.C,R58*%
X63122500Y-85710000D03*
X64772500Y-85710000D03*
%TD*%
D48*
%TO.C,C61*%
X73595000Y-86870000D03*
X72045000Y-86870000D03*
%TD*%
%TO.C,C31*%
X72155000Y-61620000D03*
X70605000Y-61620000D03*
%TD*%
D17*
%TO.C,C18*%
X82879411Y-94589411D03*
X82200589Y-93910589D03*
%TD*%
D75*
%TO.C,R24*%
X88190000Y-98695000D03*
X88190000Y-100520000D03*
%TD*%
D17*
%TO.C,C19*%
X82559411Y-104379411D03*
X81880589Y-103700589D03*
%TD*%
D27*
%TO.C,C10*%
X95500000Y-109400000D03*
X94821178Y-110078822D03*
%TD*%
D57*
%TO.C,C12*%
X86630589Y-112609411D03*
X87309411Y-111930589D03*
%TD*%
%TO.C,C21*%
X75420589Y-94149411D03*
X76099411Y-93470589D03*
%TD*%
D59*
%TO.C,C24*%
X85030589Y-107700589D03*
X85709411Y-108379411D03*
%TD*%
D43*
%TO.C,R55*%
X94800000Y-124390000D03*
X94800000Y-125410000D03*
%TD*%
D36*
%TO.C,R71*%
X84595000Y-74910000D03*
X82945000Y-74910000D03*
%TD*%
D76*
%TO.C,Y2*%
X73836777Y-91001142D03*
X72281142Y-92556777D03*
X73483223Y-93758858D03*
X75038858Y-92203223D03*
%TD*%
D73*
%TO.C,D6*%
X71160000Y-70060000D03*
X73035000Y-70060000D03*
%TD*%
D62*
%TO.C,C26*%
X86800000Y-102105000D03*
X86800000Y-103655000D03*
%TD*%
D34*
%TO.C,R36*%
X108800000Y-58200000D03*
X108800000Y-57180000D03*
%TD*%
D77*
%TO.C,U3*%
X88416800Y-113600000D03*
X88699643Y-113882843D03*
X88982486Y-114165686D03*
X89265328Y-114448528D03*
X89548171Y-114731371D03*
X89831014Y-115014214D03*
X90113856Y-115297056D03*
X90396699Y-115579899D03*
X90679542Y-115862742D03*
X90962384Y-116145584D03*
X91245227Y-116428427D03*
X91528070Y-116711270D03*
D78*
X92588730Y-116711270D03*
X92871573Y-116428427D03*
X93154416Y-116145584D03*
X93437258Y-115862742D03*
X93720101Y-115579899D03*
X94002944Y-115297056D03*
X94285786Y-115014214D03*
X94568629Y-114731371D03*
X94851472Y-114448528D03*
X95134314Y-114165686D03*
X95417157Y-113882843D03*
X95700000Y-113600000D03*
D77*
X95700000Y-112539340D03*
X95417157Y-112256497D03*
X95134314Y-111973654D03*
X94851472Y-111690812D03*
X94568629Y-111407969D03*
X94285786Y-111125126D03*
X94002944Y-110842284D03*
X93720101Y-110559441D03*
X93437258Y-110276598D03*
X93154416Y-109993756D03*
X92871573Y-109710913D03*
X92588730Y-109428070D03*
D78*
X91528070Y-109428070D03*
X91245227Y-109710913D03*
X90962384Y-109993756D03*
X90679542Y-110276598D03*
X90396699Y-110559441D03*
X90113856Y-110842284D03*
X89831014Y-111125126D03*
X89548171Y-111407969D03*
X89265328Y-111690812D03*
X88982486Y-111973654D03*
X88699643Y-112256497D03*
X88416800Y-112539340D03*
D79*
X92058400Y-113069670D03*
%TD*%
D69*
%TO.C,C30*%
X111820000Y-61090000D03*
X110860000Y-61090000D03*
%TD*%
D10*
%TO.C,H1*%
X55000000Y-55000000D03*
D11*
X55000000Y-55000000D03*
%TD*%
D30*
%TO.C,D3*%
X88557500Y-87400000D03*
X86682500Y-87400000D03*
%TD*%
D26*
%TO.C,R45*%
X75910000Y-117200000D03*
X74890000Y-117200000D03*
%TD*%
D80*
%TO.C,J14*%
X134360000Y-64430000D03*
D81*
X134360000Y-58630000D03*
D82*
X129560000Y-61430000D03*
%TD*%
D45*
%TO.C,D20*%
X77700000Y-127500000D03*
X74900000Y-127500000D03*
%TD*%
D46*
%TO.C,R74*%
X119190000Y-88050000D03*
X119190000Y-86400000D03*
%TD*%
D30*
%TO.C,D5*%
X88597500Y-83417271D03*
X86722500Y-83417271D03*
%TD*%
D68*
%TO.C,R13*%
X73572500Y-106080000D03*
X71747500Y-106080000D03*
%TD*%
D65*
%TO.C,C66*%
X108590000Y-96740000D03*
X108590000Y-97700000D03*
%TD*%
D27*
%TO.C,C3*%
X94229411Y-108100589D03*
X93550589Y-108779411D03*
%TD*%
%TO.C,C20*%
X83810000Y-101830000D03*
X83131178Y-102508822D03*
%TD*%
D22*
%TO.C,C45*%
X90600000Y-141775000D03*
X90600000Y-140225000D03*
%TD*%
D83*
%TO.C,L1*%
X115410000Y-102525000D03*
X110810000Y-102525000D03*
%TD*%
D26*
%TO.C,R44*%
X75900000Y-118200000D03*
X74880000Y-118200000D03*
%TD*%
D74*
%TO.C,D11*%
X70600000Y-109700000D03*
X70600000Y-112500000D03*
%TD*%
D63*
%TO.C,R31*%
X90175000Y-83427271D03*
X92000000Y-83427271D03*
%TD*%
D26*
%TO.C,R10*%
X87240000Y-105920000D03*
X86220000Y-105920000D03*
%TD*%
D84*
%TO.C,D36*%
X112600000Y-82800000D03*
X108600000Y-82800000D03*
%TD*%
D34*
%TO.C,R65*%
X120510000Y-89735000D03*
X120510000Y-88715000D03*
%TD*%
D16*
%TO.C,D24*%
X90000000Y-129500000D03*
X92800000Y-129500000D03*
%TD*%
D22*
%TO.C,C68*%
X109841992Y-97986992D03*
X109841992Y-96436992D03*
%TD*%
D59*
%TO.C,C29*%
X80870589Y-92610589D03*
X81549411Y-93289411D03*
%TD*%
D85*
%TO.C,SW2*%
X93950000Y-96060000D03*
X87950000Y-96060000D03*
X93950000Y-92360000D03*
X87950000Y-92360000D03*
%TD*%
D22*
%TO.C,C54*%
X111360000Y-97937500D03*
X111360000Y-96387500D03*
%TD*%
D62*
%TO.C,C53*%
X113750000Y-93150000D03*
X113750000Y-94700000D03*
%TD*%
D45*
%TO.C,D15*%
X72000000Y-138000000D03*
X69200000Y-138000000D03*
%TD*%
D54*
%TO.C,D13*%
X70700000Y-119800000D03*
X70700000Y-117000000D03*
%TD*%
D22*
%TO.C,C27*%
X117650000Y-101660000D03*
X117650000Y-100110000D03*
%TD*%
D65*
%TO.C,C59*%
X124665000Y-91235000D03*
X124665000Y-92195000D03*
%TD*%
D86*
%TO.C,R19*%
X120057500Y-107520000D03*
X122982500Y-107520000D03*
%TD*%
D69*
%TO.C,C33*%
X102660000Y-108100000D03*
X101700000Y-108100000D03*
%TD*%
D87*
%TO.C,D34*%
X66020000Y-78742500D03*
X66020000Y-82742500D03*
%TD*%
D28*
%TO.C,R7*%
X83390624Y-110150624D03*
X82669376Y-109429376D03*
%TD*%
D88*
%TO.C,D37*%
X126220000Y-82730000D03*
X126220000Y-78730000D03*
%TD*%
D43*
%TO.C,R68*%
X110140000Y-78400000D03*
X110140000Y-79420000D03*
%TD*%
D48*
%TO.C,C36*%
X73600000Y-80917500D03*
X72050000Y-80917500D03*
%TD*%
D46*
%TO.C,R38*%
X100510000Y-108725000D03*
X100510000Y-107075000D03*
%TD*%
D26*
%TO.C,R46*%
X75720000Y-113800000D03*
X74700000Y-113800000D03*
%TD*%
D65*
%TO.C,C55*%
X117950000Y-86560000D03*
X117950000Y-87520000D03*
%TD*%
D45*
%TO.C,D25*%
X97300000Y-129500000D03*
X94500000Y-129500000D03*
%TD*%
D49*
%TO.C,R34*%
X67195000Y-61620000D03*
X68845000Y-61620000D03*
%TD*%
D45*
%TO.C,D19*%
X76200000Y-129900000D03*
X73400000Y-129900000D03*
%TD*%
D22*
%TO.C,C65*%
X112890000Y-97960000D03*
X112890000Y-96410000D03*
%TD*%
D26*
%TO.C,R63*%
X122490000Y-89665000D03*
X121470000Y-89665000D03*
%TD*%
D16*
%TO.C,D30*%
X110900000Y-129500000D03*
X113700000Y-129500000D03*
%TD*%
D22*
%TO.C,C48*%
X111700000Y-142012500D03*
X111700000Y-140462500D03*
%TD*%
D26*
%TO.C,R47*%
X76210000Y-114800000D03*
X75190000Y-114800000D03*
%TD*%
D22*
%TO.C,C41*%
X71400000Y-141675000D03*
X71400000Y-140125000D03*
%TD*%
D89*
%TO.C,U2*%
X79898788Y-103587876D03*
X80252342Y-103234322D03*
X80605895Y-102880769D03*
X80959449Y-102527215D03*
X81313002Y-102173662D03*
X81666555Y-101820109D03*
X82020109Y-101466555D03*
X82373662Y-101113002D03*
X82727215Y-100759449D03*
X83080769Y-100405895D03*
X83434322Y-100052342D03*
X83787876Y-99698788D03*
D90*
X83787876Y-97701212D03*
X83434322Y-97347658D03*
X83080769Y-96994105D03*
X82727215Y-96640551D03*
X82373662Y-96286998D03*
X82020109Y-95933445D03*
X81666555Y-95579891D03*
X81313002Y-95226338D03*
X80959449Y-94872785D03*
X80605895Y-94519231D03*
X80252342Y-94165678D03*
X79898788Y-93812124D03*
D89*
X77901212Y-93812124D03*
X77547658Y-94165678D03*
X77194105Y-94519231D03*
X76840551Y-94872785D03*
X76486998Y-95226338D03*
X76133445Y-95579891D03*
X75779891Y-95933445D03*
X75426338Y-96286998D03*
X75072785Y-96640551D03*
X74719231Y-96994105D03*
X74365678Y-97347658D03*
X74012124Y-97701212D03*
D90*
X74012124Y-99698788D03*
X74365678Y-100052342D03*
X74719231Y-100405895D03*
X75072785Y-100759449D03*
X75426338Y-101113002D03*
X75779891Y-101466555D03*
X76133445Y-101820109D03*
X76486998Y-102173662D03*
X76840551Y-102527215D03*
X77194105Y-102880769D03*
X77547658Y-103234322D03*
X77901212Y-103587876D03*
%TD*%
D84*
%TO.C,D33*%
X69467500Y-74630000D03*
X65467500Y-74630000D03*
%TD*%
D36*
%TO.C,R16*%
X55635000Y-124100000D03*
X53985000Y-124100000D03*
%TD*%
D43*
%TO.C,R54*%
X95800000Y-124390000D03*
X95800000Y-125410000D03*
%TD*%
D59*
%TO.C,C8*%
X86870589Y-113700589D03*
X87549411Y-114379411D03*
%TD*%
D43*
%TO.C,R60*%
X115800000Y-124380000D03*
X115800000Y-125400000D03*
%TD*%
D34*
%TO.C,R37*%
X107760000Y-57700000D03*
X107760000Y-56680000D03*
%TD*%
D16*
%TO.C,D17*%
X67800000Y-127500000D03*
X70600000Y-127500000D03*
%TD*%
D91*
%TO.C,U11*%
X125960000Y-92170000D03*
X126610000Y-92170000D03*
X127260000Y-92170000D03*
X127910000Y-92170000D03*
X127910000Y-87945000D03*
X127260000Y-87945000D03*
X126610000Y-87945000D03*
X125960000Y-87945000D03*
%TD*%
D48*
%TO.C,C62*%
X78145000Y-83320000D03*
X76595000Y-83320000D03*
%TD*%
D70*
%TO.C,C56*%
X123615000Y-114960000D03*
X124575000Y-114960000D03*
%TD*%
D86*
%TO.C,R21*%
X120027500Y-109810000D03*
X122952500Y-109810000D03*
%TD*%
D43*
%TO.C,R62*%
X113400000Y-124990000D03*
X113400000Y-126010000D03*
%TD*%
D12*
%TO.C,R12*%
X84839376Y-111530624D03*
X85560624Y-110809376D03*
%TD*%
D55*
%TO.C,C43*%
X59170000Y-138765000D03*
X59170000Y-135815000D03*
%TD*%
D21*
%TO.C,C38*%
X58025000Y-114800000D03*
X59575000Y-114800000D03*
%TD*%
D68*
%TO.C,R14*%
X73572500Y-104560000D03*
X71747500Y-104560000D03*
%TD*%
D63*
%TO.C,R29*%
X90145000Y-87400000D03*
X91970000Y-87400000D03*
%TD*%
D54*
%TO.C,D9*%
X61800000Y-115400000D03*
X61800000Y-112600000D03*
%TD*%
D52*
%TO.C,C69*%
X113890000Y-107910000D03*
D53*
X113890000Y-110410000D03*
%TD*%
D25*
%TO.C,R43*%
X91130000Y-99515000D03*
X91130000Y-101165000D03*
%TD*%
D64*
%TO.C,R4*%
X78077500Y-72560000D03*
X79902500Y-72560000D03*
%TD*%
D63*
%TO.C,R30*%
X90166599Y-85424227D03*
X91991599Y-85424227D03*
%TD*%
D47*
%TO.C,R72*%
X78432500Y-80350000D03*
X75507500Y-80350000D03*
%TD*%
D16*
%TO.C,D18*%
X68900000Y-129900000D03*
X71700000Y-129900000D03*
%TD*%
D92*
%TO.C,Y1*%
X91180000Y-103020000D03*
X88980000Y-103020000D03*
X88980000Y-104720000D03*
X91180000Y-104720000D03*
%TD*%
D93*
%TO.C,J9*%
X97000000Y-141890000D03*
X85570000Y-141890000D03*
D94*
X95730000Y-135540000D03*
D95*
X94460000Y-133000000D03*
X93190000Y-135540000D03*
X91920000Y-133000000D03*
X90650000Y-135540000D03*
X89380000Y-133000000D03*
X88110000Y-135540000D03*
X86840000Y-133000000D03*
D96*
X97920000Y-145950000D03*
X95380000Y-145950000D03*
X87200000Y-145950000D03*
X84660000Y-145950000D03*
D97*
X99040000Y-138840000D03*
X83540000Y-138840000D03*
%TD*%
D93*
%TO.C,J8*%
X76000000Y-141890000D03*
X64570000Y-141890000D03*
D94*
X74730000Y-135540000D03*
D95*
X73460000Y-133000000D03*
X72190000Y-135540000D03*
X70920000Y-133000000D03*
X69650000Y-135540000D03*
X68380000Y-133000000D03*
X67110000Y-135540000D03*
X65840000Y-133000000D03*
D96*
X76920000Y-145950000D03*
X74380000Y-145950000D03*
X66200000Y-145950000D03*
X63660000Y-145950000D03*
D97*
X78040000Y-138840000D03*
X62540000Y-138840000D03*
%TD*%
D93*
%TO.C,J7*%
X58110000Y-120000000D03*
X58110000Y-108570000D03*
D94*
X64460000Y-118730000D03*
D95*
X67000000Y-117460000D03*
X64460000Y-116190000D03*
X67000000Y-114920000D03*
X64460000Y-113650000D03*
X67000000Y-112380000D03*
X64460000Y-111110000D03*
X67000000Y-109840000D03*
D96*
X54050000Y-120920000D03*
X54050000Y-118380000D03*
X54050000Y-110200000D03*
X54050000Y-107660000D03*
D97*
X61160000Y-122040000D03*
X61160000Y-106540000D03*
%TD*%
D93*
%TO.C,J10*%
X118000000Y-141890000D03*
X106570000Y-141890000D03*
D94*
X116730000Y-135540000D03*
D95*
X115460000Y-133000000D03*
X114190000Y-135540000D03*
X112920000Y-133000000D03*
X111650000Y-135540000D03*
X110380000Y-133000000D03*
X109110000Y-135540000D03*
X107840000Y-133000000D03*
D96*
X118920000Y-145950000D03*
X116380000Y-145950000D03*
X108200000Y-145950000D03*
X105660000Y-145950000D03*
D97*
X120040000Y-138840000D03*
X104540000Y-138840000D03*
%TD*%
M02*
