M48
; DRILL file {KiCad 7.0.1} date Thu Jun 29 20:29:04 2023
; FORMAT={-:-/ absolute / inch / decimal}
; #@! TF.CreationDate,2023-06-29T20:29:04+03:00
; #@! TF.GenerationSoftware,Kicad,Pcbnew,7.0.1
; #@! TF.FileFunction,Plated,1,4,PTH
FMAT,2
INCH
; #@! TA.AperFunction,Plated,PTH,ViaDrill
T1C0.0118
; #@! TA.AperFunction,Plated,PTH,ComponentDrill
T2C0.0157
; #@! TA.AperFunction,Plated,PTH,ComponentDrill
T3C0.0236
; #@! TA.AperFunction,Plated,PTH,ComponentDrill
T4C0.0315
; #@! TA.AperFunction,Plated,PTH,ComponentDrill
T5C0.0354
; #@! TA.AperFunction,Plated,PTH,ComponentDrill
T6C0.0394
; #@! TA.AperFunction,Plated,PTH,ComponentDrill
T7C0.0520
; #@! TA.AperFunction,Plated,PTH,ComponentDrill
T8C0.0669
; #@! TA.AperFunction,Plated,PTH,ComponentDrill
T9C0.1260
%
G90
G05
T1
X2.0134Y-2.0753
X2.0134Y-2.1753
X2.0134Y-2.2753
X2.0134Y-2.3753
X2.0134Y-2.8753
X2.0134Y-2.9753
X2.0134Y-3.0753
X2.0134Y-3.1753
X2.0134Y-3.2753
X2.0134Y-3.3753
X2.0134Y-3.4753
X2.0134Y-3.5753
X2.0134Y-3.6753
X2.0134Y-3.7753
X2.0134Y-3.8753
X2.0134Y-3.9753
X2.0134Y-4.0753
X2.0134Y-4.1753
X2.0134Y-4.2753
X2.0134Y-4.3753
X2.0134Y-4.4753
X2.0134Y-4.5753
X2.0134Y-4.6753
X2.0134Y-4.7753
X2.0134Y-4.8753
X2.0134Y-4.9753
X2.0134Y-5.0753
X2.0134Y-5.1753
X2.0134Y-5.2753
X2.0134Y-5.3753
X2.0134Y-5.4753
X2.0134Y-5.5753
X2.0134Y-5.6753
X2.0134Y-5.7753
X2.1134Y-2.3753
X2.1134Y-2.4753
X2.1134Y-2.5753
X2.1134Y-2.6753
X2.1134Y-2.8753
X2.1134Y-2.9753
X2.1134Y-3.0753
X2.1134Y-3.1753
X2.1134Y-3.5753
X2.1134Y-3.6753
X2.1134Y-3.7753
X2.1134Y-3.8753
X2.1134Y-3.9753
X2.1134Y-4.0753
X2.1134Y-4.4753
X2.1134Y-4.5753
X2.1134Y-4.9753
X2.1134Y-5.0753
X2.1134Y-5.1753
X2.1134Y-5.2753
X2.1134Y-5.3753
X2.1134Y-5.4753
X2.2134Y-2.8753
X2.2134Y-3.0753
X2.2134Y-3.5753
X2.2134Y-3.6753
X2.2134Y-3.7753
X2.2134Y-3.8753
X2.2134Y-3.9753
X2.2134Y-4.0753
X2.2134Y-4.1753
X2.2134Y-4.3753
X2.2134Y-4.5753
X2.2134Y-4.9753
X2.2134Y-5.0753
X2.2134Y-5.1753
X2.2134Y-5.2753
X2.2134Y-5.3753
X2.2134Y-5.4753
X2.2256Y-3.339
X2.2323Y-4.4882
X2.2677Y-2.4433
X2.2689Y-2.7524
X2.2839Y-2.5055
X2.2898Y-2.472
X2.3024Y-4.9126
X2.3134Y-2.0753
X2.3134Y-2.1753
X2.3134Y-2.8753
X2.3134Y-3.0753
X2.3134Y-3.4753
X2.3134Y-3.5753
X2.3134Y-3.6753
X2.3134Y-3.7753
X2.3134Y-3.8753
X2.3134Y-3.9753
X2.3134Y-4.0753
X2.3134Y-4.1753
X2.3134Y-4.3753
X2.3134Y-4.5753
X2.3134Y-4.9753
X2.3134Y-5.0753
X2.3134Y-5.1753
X2.3134Y-5.5753
X2.3134Y-5.6753
X2.3134Y-5.7753
X2.3295Y-5.3047
X2.3331Y-2.4264
X2.339Y-2.7209
X2.3559Y-2.3358
X2.3921Y-2.6772
X2.4047Y-2.4945
X2.4134Y-2.0753
X2.4134Y-2.1753
X2.4134Y-2.8753
X2.4134Y-2.9753
X2.4134Y-3.0753
X2.4134Y-3.1753
X2.4134Y-3.5753
X2.4134Y-3.6753
X2.4134Y-3.7753
X2.4134Y-3.8753
X2.4134Y-3.9753
X2.4134Y-4.0753
X2.4134Y-5.0753
X2.4134Y-5.1753
X2.4134Y-5.2753
X2.4134Y-5.3753
X2.4134Y-5.5753
X2.4134Y-5.6753
X2.4134Y-5.7753
X2.4366Y-3.4339
X2.5063Y-2.4697
X2.5134Y-3.0753
X2.5134Y-3.1753
X2.5134Y-3.5753
X2.5134Y-3.6753
X2.5134Y-3.7753
X2.5134Y-3.8753
X2.5134Y-3.9753
X2.5134Y-4.0753
X2.5134Y-4.1753
X2.5134Y-4.2753
X2.5134Y-5.0753
X2.5134Y-5.1753
X2.5134Y-5.2753
X2.5134Y-5.3753
X2.5409Y-2.6421
X2.5528Y-4.9366
X2.6134Y-2.1753
X2.6134Y-3.4753
X2.6134Y-3.5753
X2.6134Y-3.6753
X2.6134Y-3.7753
X2.6134Y-3.8753
X2.6134Y-3.9753
X2.6134Y-4.0753
X2.6134Y-4.1753
X2.6134Y-4.8753
X2.6134Y-4.9753
X2.6134Y-5.0753
X2.6134Y-5.6753
X2.6457Y-4.7441
X2.6555Y-2.3579
X2.6732Y-5.1142
X2.6972Y-2.0772
X2.7087Y-5.0197
X2.7134Y-2.1753
X2.7134Y-2.2753
X2.7134Y-2.3753
X2.7134Y-3.5753
X2.7134Y-3.6753
X2.7134Y-3.7753
X2.7134Y-3.8753
X2.7134Y-3.9753
X2.7134Y-4.0753
X2.7134Y-4.1753
X2.7134Y-4.2753
X2.7134Y-4.3753
X2.7134Y-4.7753
X2.7134Y-4.8753
X2.7134Y-5.6753
X2.7134Y-5.7753
X2.7433Y-4.7169
X2.752Y-5.622
X2.7575Y-3.3728
X2.7665Y-3.1461
X2.7744Y-4.5425
X2.7795Y-4.3539
X2.7969Y-3.4205
X2.798Y-3.7209
X2.8012Y-3.185
X2.811Y-5.622
X2.8134Y-2.9753
X2.8134Y-4.7753
X2.8134Y-5.6753
X2.8134Y-5.7753
X2.8146Y-3.6126
X2.8252Y-4.013
X2.8358Y-4.3783
X2.8366Y-3.7224
X2.8492Y-3.3327
X2.852Y-3.0992
X2.8545Y-2.0758
X2.8626Y-3.7449
X2.8689Y-5.013
X2.876Y-3.9669
X2.8783Y-4.7193
X2.8791Y-2.4276
X2.8886Y-3.7646
X2.8925Y-4.5583
X2.9134Y-2.1753
X2.9134Y-2.9753
X2.9134Y-3.2753
X2.9134Y-5.6753
X2.9437Y-2.3508
X2.952Y-3.6854
X2.9732Y-2.513
X2.9756Y-2.6366
X2.9764Y-3.2795
X2.9772Y-2.076
X2.989Y-3.8381
X3.0075Y-2.5087
X3.0079Y-5.2323
X3.0087Y-3.0634
X3.0091Y-2.6421
X3.0126Y-3.3323
X3.0134Y-2.1753
X3.0134Y-4.1753
X3.0134Y-4.3753
X3.0134Y-5.1753
X3.0146Y-4.8811
X3.0201Y-3.822
X3.0232Y-3.0283
X3.0236Y-5.0197
X3.0244Y-4.8004
X3.0354Y-5.1142
X3.0409Y-3.7787
X3.052Y-3.0937
X3.0539Y-2.3713
X3.0598Y-4.5583
X3.0622Y-2.4933
X3.0866Y-3.7528
X3.0945Y-2.5024
X3.0945Y-2.9134
X3.0957Y-4.0496
X3.0965Y-3.8039
X3.1122Y-3.7327
X3.1134Y-2.0753
X3.1134Y-4.1753
X3.1134Y-4.3753
X3.1134Y-4.6753
X3.1134Y-4.9753
X3.1134Y-5.0753
X3.1134Y-5.1753
X3.1134Y-5.2753
X3.1134Y-5.3753
X3.1236Y-4.0264
X3.126Y-3.6717
X3.1295Y-2.5024
X3.1343Y-3.9835
X3.1555Y-5.6157
X3.1573Y-3.7652
X3.1614Y-2.4984
X3.1622Y-4.5858
X3.1858Y-3.7925
X3.1858Y-4.8004
X3.189Y-2.5272
X3.1933Y-5.2035
X3.1941Y-3.5307
X3.2004Y-3.6303
X3.2055Y-4.8949
X3.2126Y-4.2917
X3.2134Y-2.3476
X3.2134Y-4.6753
X3.2134Y-4.9753
X3.2134Y-5.0753
X3.2134Y-5.5753
X3.2134Y-5.6753
X3.2134Y-5.7753
X3.2209Y-3.8807
X3.2209Y-4.4346
X3.2213Y-2.4972
X3.222Y-3.9319
X3.2236Y-3.8378
X3.2417Y-1.998
X3.2492Y-2.7571
X3.2539Y-3.8748
X3.2642Y-2.4929
X3.2701Y-4.1295
X3.2713Y-2.1732
X3.274Y-3.0276
X3.2783Y-3.2866
X3.2878Y-3.063
X3.2945Y-4.0563
X3.2953Y-2.985
X3.2961Y-4.8004
X3.3067Y-4.4598
X3.3114Y-2.4949
X3.3134Y-2.7753
X3.3134Y-4.9753
X3.3134Y-5.1753
X3.3134Y-5.2753
X3.3134Y-5.3753
X3.3134Y-5.6753
X3.3189Y-4.0272
X3.3327Y-3.25
X3.337Y-4.5843
X3.3417Y-3.9315
X3.3421Y-3.8024
X3.3429Y-4.3559
X3.3437Y-2.5181
X3.3508Y-2.0177
X3.3567Y-3.448
X3.3571Y-3.5205
X3.3587Y-2.5882
X3.3642Y-3.2866
X3.3642Y-3.7106
X3.3787Y-4.9067
X3.3941Y-4.4496
X3.4114Y-4.3882
X3.4122Y-4.7965
X3.4134Y-2.7753
X3.4134Y-3.0753
X3.4134Y-3.7753
X3.4134Y-5.0753
X3.4146Y-2.0035
X3.4173Y-3.9843
X3.4197Y-3.6366
X3.4547Y-4.4287
X3.4547Y-4.4764
X3.4559Y-4.6291
X3.4579Y-4.2752
X3.4606Y-2.0358
X3.4642Y-2.5382
X3.4701Y-2.1213
X3.4831Y-2.4126
X3.4909Y-4.7217
X3.4957Y-5.0409
X3.4992Y-2.4969
X3.5035Y-4.011
X3.5071Y-4.5953
X3.5134Y-2.0753
X3.5134Y-2.2753
X3.5134Y-2.6753
X3.5134Y-3.6753
X3.5134Y-5.5753
X3.5134Y-5.6753
X3.5134Y-5.7753
X3.5143Y-4.3542
X3.5177Y-3.9583
X3.5181Y-4.237
X3.5276Y-4.5598
X3.5291Y-4.4591
X3.5315Y-4.3185
X3.5323Y-4.8988
X3.5386Y-2.4697
X3.5437Y-5.0598
X3.563Y-4.5039
X3.5669Y-5.626
X3.5709Y-4.3937
X3.5898Y-4.1811
X3.6051Y-4.8299
X3.6134Y-2.0753
X3.6134Y-3.0753
X3.6134Y-3.6753
X3.6134Y-5.6753
X3.6134Y-5.7753
X3.6213Y-3.2402
X3.6213Y-3.5618
X3.6217Y-4.6697
X3.622Y-4.5591
X3.6243Y-4.4516
X3.626Y-4.3386
X3.626Y-4.3937
X3.626Y-5.626
X3.6264Y-4.2949
X3.6264Y-4.6197
X3.6354Y-2.8142
X3.6386Y-4.2118
X3.6811Y-4.3937
X3.6811Y-4.4488
X3.6811Y-4.4882
X3.7016Y-4.2106
X3.7134Y-2.0753
X3.7134Y-2.4753
X3.7134Y-5.5753
X3.7134Y-5.6753
X3.7228Y-4.5622
X3.7268Y-4.237
X3.7362Y-4.4528
X3.7472Y-3.6346
X3.7496Y-4.2118
X3.7634Y-4.3579
X3.7811Y-4.2311
X3.7846Y-4.6323
X3.7894Y-4.3039
X3.7929Y-3.9535
X3.7996Y-4.476
X3.802Y-4.2701
X3.8087Y-4.1795
X3.8134Y-2.0753
X3.8134Y-2.2753
X3.8134Y-2.3753
X3.8134Y-2.5753
X3.8134Y-4.7753
X3.8134Y-4.8753
X3.8134Y-5.1753
X3.8193Y-4.026
X3.8217Y-4.435
X3.8425Y-5.2283
X3.8453Y-2.8705
X3.8547Y-4.1772
X3.8559Y-4.3268
X3.8579Y-4.4472
X3.8642Y-4.5764
X3.8642Y-5.0988
X3.8736Y-2.6394
X3.878Y-2.487
X3.885Y-5.0441
X3.8941Y-4.3272
X3.8945Y-4.2894
X3.9102Y-2.3457
X3.9134Y-2.0753
X3.9134Y-2.2753
X3.9134Y-3.7753
X3.9134Y-4.5753
X3.9134Y-4.7753
X3.9134Y-4.8753
X3.9134Y-5.1753
X3.9134Y-5.5753
X3.9134Y-5.6753
X3.9508Y-2.361
X3.9563Y-4.3224
X3.9697Y-2.889
X3.9862Y-5.6461
X3.989Y-2.389
X4.0126Y-4.7319
X4.0134Y-3.5753
X4.0134Y-3.6753
X4.0134Y-3.7753
X4.0134Y-3.8753
X4.0134Y-4.3753
X4.0303Y-5.076
X4.0335Y-2.437
X4.0421Y-4.3217
X4.0425Y-4.2295
X4.0559Y-2.0358
X4.1039Y-2.0039
X4.1134Y-3.4753
X4.1134Y-3.5753
X4.1134Y-3.6753
X4.1134Y-3.7753
X4.1134Y-3.8753
X4.1134Y-3.9753
X4.1134Y-4.4753
X4.1134Y-4.5753
X4.1134Y-4.7753
X4.1134Y-4.8753
X4.1134Y-4.9753
X4.1134Y-5.6753
X4.115Y-5.185
X4.152Y-3.3409
X4.1555Y-2.0374
X4.1669Y-2.2358
X4.1689Y-2.1858
X4.2134Y-2.4753
X4.2134Y-3.3753
X4.2134Y-3.4753
X4.2134Y-3.5753
X4.2134Y-3.6753
X4.2134Y-4.2753
X4.2134Y-4.3753
X4.2134Y-4.4753
X4.2134Y-4.5753
X4.2134Y-4.7753
X4.2134Y-4.8753
X4.2134Y-4.9753
X4.2134Y-5.0753
X4.2169Y-2.726
X4.222Y-3.1169
X4.2331Y-3.0433
X4.2378Y-3.7276
X4.2602Y-3.6988
X4.2705Y-2.5228
X4.2799Y-3.7398
X4.2815Y-3.8752
X4.311Y-3.7661
X4.3134Y-3.3753
X4.3134Y-3.4753
X4.3134Y-3.5753
X4.3134Y-4.3753
X4.3134Y-4.4753
X4.3134Y-4.5753
X4.3134Y-4.7753
X4.3134Y-4.8753
X4.3134Y-5.0753
X4.3295Y-3.7114
X4.3343Y-5.0035
X4.3602Y-3.7496
X4.3657Y-5.135
X4.3799Y-3.7161
X4.3976Y-5.6339
X4.4134Y-2.4753
X4.4134Y-3.3753
X4.4134Y-3.5753
X4.4134Y-4.3753
X4.4134Y-4.4753
X4.4134Y-4.6753
X4.4142Y-3.7591
X4.4307Y-3.7165
X4.4398Y-2.2343
X4.4437Y-3.1661
X4.4528Y-2.3795
X4.4567Y-5.6339
X4.4795Y-3.0185
X4.4937Y-2.2748
X4.5134Y-3.8753
X4.5134Y-4.7753
X4.5134Y-4.8753
X4.5134Y-5.5753
X4.5134Y-5.6753
X4.5134Y-5.7753
X4.5638Y-3.7614
X4.5819Y-3.5839
X4.5827Y-3.5236
X4.5878Y-3.4819
X4.5921Y-3.443
X4.5976Y-3.4028
X4.6012Y-2.9283
X4.6051Y-2.1843
X4.6134Y-2.4753
X4.6134Y-2.6753
X4.6134Y-4.0753
X4.6134Y-4.1753
X4.6134Y-4.3753
X4.6134Y-4.4753
X4.6244Y-2.3516
X4.6425Y-3.4758
X4.6524Y-4.7039
X4.6535Y-5.1323
X4.6614Y-5.2283
X4.6795Y-5.0079
X4.7083Y-4.8705
X4.7114Y-3.5537
X4.7134Y-2.2753
X4.7134Y-2.3753
X4.7134Y-2.4753
X4.7134Y-2.7753
X4.7134Y-2.8753
X4.7134Y-4.0753
X4.7134Y-4.4753
X4.7134Y-4.5753
X4.7134Y-4.7753
X4.7134Y-5.0753
X4.7134Y-5.1753
X4.7134Y-5.6753
X4.7205Y-4.0016
X4.7614Y-3.8589
X4.8134Y-3.9753
X4.8134Y-4.0753
X4.8134Y-4.9753
X4.8134Y-5.0753
X4.8134Y-5.1753
X4.8134Y-5.2753
X4.8134Y-5.3753
X4.8134Y-5.5753
X4.8134Y-5.6753
X4.8134Y-5.7753
X4.8173Y-3.6185
X4.8472Y-3.5823
X4.8646Y-4.6528
X4.8665Y-4.4969
X4.8799Y-3.4185
X4.8886Y-2.9933
X4.9043Y-3.6705
X4.9043Y-4.4965
X4.9087Y-3.5669
X4.9102Y-2.5799
X4.9102Y-2.6744
X4.9102Y-2.7744
X4.9102Y-2.8744
X4.9134Y-2.0753
X4.9134Y-2.4753
X4.9134Y-4.8753
X4.9134Y-4.9753
X4.9134Y-5.0753
X4.9134Y-5.1753
X4.9134Y-5.2753
X4.9134Y-5.3753
X4.9134Y-5.4753
X4.9134Y-5.5753
X4.9134Y-5.6753
X4.9134Y-5.7753
X4.9252Y-4.7232
X4.9256Y-3.4626
X4.9685Y-3.3988
X4.9839Y-4.6835
X5.0067Y-3.3701
X5.0102Y-2.5799
X5.0102Y-2.6744
X5.0102Y-2.7744
X5.0102Y-3.5724
X5.0134Y-2.0753
X5.0134Y-2.1753
X5.0134Y-2.2753
X5.0134Y-2.3753
X5.0134Y-2.4753
X5.0134Y-4.7753
X5.0134Y-4.8753
X5.0134Y-4.9753
X5.0134Y-5.0753
X5.0134Y-5.1753
X5.0134Y-5.2753
X5.0134Y-5.3753
X5.0134Y-5.4753
X5.0134Y-5.5753
X5.0134Y-5.6753
X5.0134Y-5.7753
X5.0303Y-3.9894
X5.0665Y-3.4618
X5.1102Y-2.6744
X5.1134Y-2.0753
X5.1134Y-2.1753
X5.1134Y-2.2753
X5.1134Y-2.5753
X5.1134Y-2.9753
X5.1134Y-3.0753
X5.1134Y-3.1753
X5.1134Y-3.2753
X5.1134Y-3.3753
X5.1134Y-3.4753
X5.1134Y-3.5753
X5.1134Y-3.6753
X5.1134Y-3.7753
X5.1134Y-3.8753
X5.1134Y-4.2753
X5.1134Y-4.3753
X5.1134Y-4.4753
X5.1134Y-4.5753
X5.1134Y-4.6753
X5.1134Y-4.7753
X5.1134Y-4.8753
X5.1134Y-4.9753
X5.1134Y-5.0753
X5.1134Y-5.1753
X5.1134Y-5.2753
X5.1134Y-5.3753
X5.1134Y-5.4753
X5.1134Y-5.5753
X5.1134Y-5.6753
X5.1134Y-5.7753
X5.2134Y-2.0753
X5.2134Y-2.1753
X5.2134Y-2.3753
X5.2134Y-2.8753
X5.2134Y-2.9753
X5.2134Y-3.0753
X5.2134Y-3.1753
X5.2134Y-3.2753
X5.2134Y-3.3753
X5.2134Y-3.4753
X5.2134Y-3.5753
X5.2134Y-3.6753
X5.2134Y-3.7753
X5.2134Y-4.1753
X5.2134Y-4.2753
X5.2134Y-4.3753
X5.2134Y-4.4753
X5.2134Y-4.5753
X5.2134Y-4.6753
X5.2134Y-4.7753
X5.2134Y-4.8753
X5.2134Y-4.9753
X5.2134Y-5.0753
X5.2134Y-5.1753
X5.2134Y-5.2753
X5.2134Y-5.3753
X5.2134Y-5.4753
X5.2134Y-5.5753
X5.2134Y-5.6753
X5.2134Y-5.7753
X5.3134Y-2.0753
X5.3134Y-2.1753
X5.3134Y-2.3753
X5.3134Y-2.7753
X5.3134Y-2.8753
X5.3134Y-2.9753
X5.3134Y-3.0753
X5.3134Y-3.1753
X5.3134Y-3.2753
X5.3134Y-3.3753
X5.3134Y-3.4753
X5.3134Y-3.5753
X5.3134Y-3.6753
X5.3134Y-4.0753
X5.3134Y-4.1753
X5.3134Y-4.2753
X5.3134Y-4.3753
X5.3134Y-4.4753
X5.3134Y-4.5753
X5.3134Y-4.6753
X5.3134Y-4.7753
X5.3134Y-4.8753
X5.3134Y-4.9753
X5.3134Y-5.0753
X5.3134Y-5.1753
X5.3134Y-5.2753
X5.3134Y-5.3753
X5.3134Y-5.4753
X5.3134Y-5.5753
X5.3134Y-5.6753
X5.3134Y-5.7753
X5.4134Y-2.0753
X5.4134Y-2.1753
X5.4134Y-2.2753
X5.4134Y-2.3753
X5.4134Y-2.4753
X5.4134Y-2.5753
X5.4134Y-2.6753
X5.4134Y-2.7753
X5.4134Y-2.8753
X5.4134Y-2.9753
X5.4134Y-3.0753
X5.4134Y-3.1753
X5.4134Y-3.3753
X5.4134Y-3.4753
X5.4134Y-3.5753
X5.4134Y-3.9753
X5.4134Y-4.0753
X5.4134Y-4.1753
X5.4134Y-4.2753
X5.4134Y-4.3753
X5.4134Y-4.4753
X5.4134Y-4.5753
X5.4134Y-4.6753
X5.4134Y-4.7753
X5.4134Y-4.8753
X5.4134Y-4.9753
X5.4134Y-5.0753
X5.4134Y-5.2753
X5.4134Y-5.3753
X5.4134Y-5.4753
X5.4134Y-5.5753
X5.4134Y-5.6753
X5.4134Y-5.7753
X5.5134Y-2.0753
X5.5134Y-2.1753
X5.5134Y-2.2753
X5.5134Y-2.3753
X5.5134Y-2.4753
X5.5134Y-2.5753
X5.5134Y-2.6753
X5.5134Y-2.7753
X5.5134Y-2.8753
X5.5134Y-3.8753
X5.5134Y-3.9753
X5.5134Y-4.0753
X5.5134Y-4.1753
X5.5134Y-4.2753
X5.5134Y-4.3753
X5.5134Y-4.4753
X5.5134Y-4.5753
X5.5134Y-4.6753
X5.5134Y-4.7753
X5.5134Y-4.8753
X5.5134Y-4.9753
X5.5134Y-5.0753
X5.5134Y-5.2753
X5.5134Y-5.3753
X5.5134Y-5.5753
X5.5134Y-5.6753
X5.5134Y-5.7753
X5.6134Y-2.3753
X5.6134Y-2.4753
X5.6134Y-2.5753
X5.6134Y-2.6753
X5.6134Y-2.7753
X5.6134Y-2.8753
X5.6134Y-3.7753
X5.6134Y-3.8753
X5.6134Y-3.9753
X5.6134Y-4.0753
X5.6134Y-4.1753
X5.6134Y-4.2753
X5.6134Y-4.3753
X5.6134Y-4.4753
X5.6134Y-4.5753
X5.6134Y-4.6753
X5.6134Y-4.7753
X5.6134Y-4.8753
X5.6134Y-4.9753
X5.6134Y-5.0753
X5.6134Y-5.2753
X5.6134Y-5.3753
X5.6134Y-5.5753
X5.7134Y-2.3753
X5.7134Y-2.4753
X5.7134Y-2.5753
X5.7134Y-2.6753
X5.7134Y-2.7753
X5.7134Y-2.8753
X5.7134Y-2.9753
X5.7134Y-3.0753
X5.7134Y-3.1753
X5.7134Y-3.3753
X5.7134Y-3.4753
X5.7134Y-3.5753
X5.7134Y-3.6753
X5.7134Y-3.7753
X5.7134Y-3.8753
X5.7134Y-3.9753
X5.7134Y-4.0753
X5.7134Y-4.1753
X5.7134Y-4.2753
X5.7134Y-4.3753
X5.7134Y-4.4753
X5.7134Y-4.5753
X5.7134Y-4.6753
X5.7134Y-4.7753
X5.7134Y-4.8753
X5.7134Y-4.9753
X5.7134Y-5.0753
X5.7134Y-5.2753
X5.7134Y-5.3753
X5.7134Y-5.4753
X5.8134Y-2.2753
X5.8134Y-2.3753
X5.8134Y-2.4753
X5.8134Y-2.5753
X5.8134Y-2.6753
X5.8134Y-2.7753
X5.8134Y-2.8753
X5.8134Y-2.9753
X5.8134Y-3.0753
X5.8134Y-3.1753
X5.8134Y-3.2753
X5.8134Y-3.3753
X5.8134Y-3.4753
X5.8134Y-3.5753
X5.8134Y-3.6753
X5.8134Y-3.7753
X5.8134Y-3.8753
X5.8134Y-3.9753
X5.8134Y-4.0753
X5.8134Y-4.1753
X5.8134Y-4.2753
X5.8134Y-4.3753
X5.8134Y-4.4753
X5.8134Y-4.5753
X5.8134Y-4.6753
X5.8134Y-4.7753
X5.8134Y-4.8753
X5.8134Y-4.9753
X5.8134Y-5.0753
X5.8134Y-5.1753
X5.8134Y-5.2753
X5.8134Y-5.3753
X5.8134Y-5.4753
X5.8134Y-5.5753
T2
X4.6187Y-3.7366
X4.6187Y-3.7878
X4.6581Y-3.7366
X4.6581Y-3.7878
X4.6974Y-3.7366
X4.6974Y-3.7878
T4
X4.4126Y-3.5006
X4.4839Y-4.2484
X4.4839Y-4.3469
X4.511Y-3.5006
T5
X2.5378Y-4.3744
X2.5378Y-4.4744
X2.5378Y-4.5744
X2.5378Y-4.6744
X2.5921Y-5.2362
X2.6378Y-4.3244
X2.6378Y-4.4244
X2.6378Y-4.5244
X2.6378Y-4.6244
X2.6421Y-5.3362
X2.6921Y-5.2362
X2.7421Y-5.3362
X2.7921Y-5.2362
X2.8421Y-5.3362
X2.8921Y-5.2362
X2.9421Y-5.3362
X3.4189Y-5.2362
X3.4689Y-5.3362
X3.5189Y-5.2362
X3.5689Y-5.3362
X3.6189Y-5.2362
X3.6689Y-5.3362
X3.7189Y-5.2362
X3.7689Y-5.3362
X4.2457Y-5.2362
X4.2957Y-5.3362
X4.3457Y-5.2362
X4.3957Y-5.3362
X4.4457Y-5.2362
X4.4957Y-5.3362
X4.5457Y-5.2362
X4.5957Y-5.3362
T6
X2.0992Y-3.3892
X2.0992Y-3.4892
X2.128Y-4.2386
X2.128Y-4.3386
X2.128Y-4.6606
X2.128Y-4.7606
X2.5063Y-5.7461
X2.6063Y-5.7461
X2.9283Y-5.7461
X3.0283Y-5.7461
X3.3331Y-5.7461
X3.4331Y-5.7461
X3.474Y-2.9583
X3.574Y-2.9583
X3.674Y-2.9583
X3.7551Y-5.7461
X3.774Y-2.9583
X3.8551Y-5.7461
X3.863Y-3.2201
X3.863Y-3.3201
X3.863Y-3.4201
X3.863Y-3.5201
X3.863Y-3.6201
X3.863Y-3.7201
X3.874Y-2.9583
X3.974Y-2.9583
X4.1598Y-5.7461
X4.2598Y-5.7461
X4.3307Y-2.0472
X4.3654Y-2.5461
X4.3654Y-2.6461
X4.3654Y-2.7461
X4.3654Y-2.8461
X4.4307Y-2.0472
X4.5307Y-2.0472
X4.5819Y-5.7461
X4.6307Y-2.0472
X4.6819Y-5.7461
X4.7882Y-2.6079
X4.7882Y-2.7079
X4.7882Y-2.8079
X4.7882Y-2.9079
X4.7882Y-3.0079
X4.7882Y-3.1079
X4.8031Y-2.0622
X4.8031Y-2.1622
X4.8031Y-2.2622
X4.8031Y-2.3622
T7
X2.2358Y-2.973
X2.2358Y-3.1699
T8
X2.4079Y-4.1945
X2.4079Y-4.8047
X2.4622Y-5.4661
X3.0724Y-5.4661
X3.289Y-5.4661
X3.8992Y-5.4661
X4.1157Y-5.4661
X4.726Y-5.4661
T9
X2.1654Y-2.1654
X2.1654Y-5.7087
X5.7087Y-2.1654
X5.7087Y-5.7087
T3
G00X2.0571Y-2.4283
M15
G01X2.0335Y-2.4283
M16
G05
G00X2.0571Y-2.7685
M15
G01X2.0335Y-2.7685
M16
G05
G00X2.2315Y-2.4283
M15
G01X2.1882Y-2.4283
M16
G05
G00X2.2315Y-2.7685
M15
G01X2.1882Y-2.7685
M16
G05
T4
G00X5.1008Y-2.3752
M15
G01X5.1008Y-2.4618
M16
G05
G00X5.3331Y-2.3083
M15
G01X5.2465Y-2.3083
M16
G05
G00X5.3409Y-2.5366
M15
G01X5.2386Y-2.5366
M16
G05
T6
G00X5.4577Y-3.2677
M15
G01X5.4872Y-3.2677
M16
G05
G00X5.4872Y-5.1627
M15
G01X5.4577Y-5.1627
M16
G05
G00X5.5561Y-2.9685
M15
G01X5.5856Y-2.9685
M16
G05
G00X5.5856Y-5.4619
M15
G01X5.5561Y-5.4619
M16
G05
G00X5.6545Y-3.2677
M15
G01X5.6841Y-3.2677
M16
G05
G00X5.6841Y-5.1627
M15
G01X5.6545Y-5.1627
M16
G05
T0
M30
